<?xml version="1.0" encoding="UTF-8"?>
<svg version="1.1" xmlns="http://www.w3.org/2000/svg" width="565" height="565">
<path d="M0 0 C1.7081916 1.52099252 3.41652449 3.04182638 5.125 4.5625 C13.19674553 11.85351508 20.20475271 19.50594089 27 28 C27.92532252 29.11344484 28.85247916 30.22536742 29.78125 31.3359375 C60.48502477 68.36047603 79.85931886 113.78089411 88 161 C88.16371094 161.90782227 88.32742188 162.81564453 88.49609375 163.75097656 C93.62734771 193.34050094 93.34670422 226.47054384 88 256 C87.82839355 256.98049316 87.65678711 257.96098633 87.47998047 258.97119141 C82.31253689 287.8008163 72.73555248 315.14784182 59 341 C58.45786865 342.04220703 58.45786865 342.04220703 57.90478516 343.10546875 C42.24598432 373.11648661 19.94596047 401.18087734 -6 423 C-6.51997559 423.4444043 -7.03995117 423.88880859 -7.57568359 424.34667969 C-46.62725586 457.60758318 -93.60435006 479.01153397 -144 488 C-144.94456055 488.17499023 -145.88912109 488.34998047 -146.86230469 488.53027344 C-176.27335192 493.73622467 -209.655101 493.43646542 -239 488 C-240.02448242 487.81727539 -241.04896484 487.63455078 -242.10449219 487.44628906 C-290.5337422 478.53319953 -336.97313669 457.67377426 -374 425 C-374.73605469 424.36320312 -375.47210938 423.72640625 -376.23046875 423.0703125 C-378.16598533 421.39363746 -380.0852313 419.70031461 -382 418 C-382.78890625 417.30390625 -383.5778125 416.6078125 -384.390625 415.890625 C-393.79404439 407.52562002 -402.15137391 398.83912837 -410 389 C-410.92385093 387.88771678 -411.84971872 386.7771064 -412.77734375 385.66796875 C-449.9060827 340.9047062 -473.91763962 280.05550175 -474.203125 221.5859375 C-474.21013931 220.62145187 -474.21715363 219.65696625 -474.22438049 218.66325378 C-474.24179294 215.56712118 -474.24823293 212.47117977 -474.25 209.375 C-474.25067474 208.31787811 -474.25134949 207.26075623 -474.25204468 206.17160034 C-474.23651614 190.88353673 -473.85089138 176.05977761 -471 161 C-470.75056641 159.58098389 -470.75056641 159.58098389 -470.49609375 158.13330078 C-465.36220329 129.18861653 -455.7117381 101.94397038 -442 76 C-441.43176514 74.91936279 -441.43176514 74.91936279 -440.85205078 73.81689453 C-432.14054233 57.36816759 -421.80029716 42.37638966 -410 28 C-409.52449707 27.42008301 -409.04899414 26.84016602 -408.55908203 26.24267578 C-398.91253794 14.5591735 -388.48058547 3.88544908 -377 -6 C-376.37061523 -6.5468042 -375.74123047 -7.0936084 -375.09277344 -7.65698242 C-364.04245235 -17.2010905 -352.44252575 -25.37456494 -340 -33 C-339.21367187 -33.48597656 -338.42734375 -33.97195312 -337.6171875 -34.47265625 C-325.22892207 -42.07548804 -312.40756638 -48.3977662 -299 -54 C-298.16259277 -54.3515918 -297.32518555 -54.70318359 -296.46240234 -55.06542969 C-212.8902438 -89.42817046 -112.68288363 -78.7238487 0 0 Z " fill="#FAFAF8" transform="translate(474,74)"/>
<path d="M0 0 C2.94254938 1.10947426 5.67619738 2.5465462 8.44921875 4.0234375 C9.26131302 4.44364166 10.07340729 4.86384583 10.91011047 5.29678345 C13.50866721 6.64484135 16.09803253 8.00957852 18.6875 9.375 C20.37767869 10.25501441 22.06842967 11.13393059 23.75976562 12.01171875 C28.84867411 14.65777564 33.9255225 17.3263946 39 20 C40.67869968 20.88389182 42.35741052 21.76776245 44.03613281 22.65161133 C46.46450722 23.93025677 48.89283316 25.20899306 51.32087708 26.48826599 C59.06159377 30.56448445 66.82824792 34.58981264 74.6015625 38.60351562 C75.62765625 39.13525391 76.65375 39.66699219 77.7109375 40.21484375 C78.61118652 40.68011475 79.51143555 41.14538574 80.43896484 41.62475586 C87.78464847 45.56929693 87.78464847 45.56929693 89 48 C89.12197488 50.40973615 89.18559594 52.79254882 89.20532227 55.20361328 C89.21522186 55.9451767 89.22512146 56.68674011 89.23532104 57.45077515 C89.26696363 59.90725488 89.29170431 62.36375397 89.31640625 64.8203125 C89.3369734 66.521398 89.35796981 68.22247836 89.37937927 69.92355347 C89.43462464 74.40500736 89.48402303 78.88650756 89.53222656 83.36804199 C89.5824236 87.93941377 89.63811904 92.51071813 89.69335938 97.08203125 C89.80097109 106.05462994 89.90240936 115.02728711 90 124 C91.00123901 123.08093872 91.00123901 123.08093872 92.02270508 122.14331055 C92.90853271 121.33676025 93.79436035 120.53020996 94.70703125 119.69921875 C95.58077393 118.90088623 96.4545166 118.10255371 97.35473633 117.2800293 C111.45512319 105.12649788 131.10626882 99.84143769 149.35546875 99.50390625 C152 100 152 100 153.64300537 101.7364502 C155.19697501 104.32856633 155.36980694 105.71589897 155.35644531 108.71289062 C155.35938599 109.65323151 155.36232666 110.59357239 155.36535645 111.56240845 C155.34692688 113.09386002 155.34692688 113.09386002 155.328125 114.65625 C155.32679565 115.73095551 155.32546631 116.80566101 155.32409668 117.91293335 C155.31512859 121.44222243 155.28360458 124.97086553 155.25 128.5 C155.23537161 130.93505488 155.22137948 133.37011367 155.20800781 135.80517578 C155.16841669 142.00548381 155.10603293 148.20535234 155.03710938 154.40539551 C155.00158208 157.84675188 154.97548455 161.28802775 154.953125 164.72949219 C154.91879267 169.83282441 154.86332438 174.93543368 154.78845215 180.03833008 C154.76299927 181.91602523 154.74346285 183.79381073 154.73010254 185.67163086 C154.70889816 188.27918411 154.66256027 190.88511615 154.609375 193.4921875 C154.60812622 194.24196869 154.60687744 194.99174988 154.60559082 195.76425171 C154.4237058 202.30141863 152.34568604 207.65431396 147.6875 212.3125 C141.27130666 216.34127256 135.93470249 217.44586071 128.5 217.9375 C108.30566396 219.69280697 91.27065954 226.51137434 76 240 C74.56527344 241.13501953 74.56527344 241.13501953 73.1015625 242.29296875 C69.62304753 245.18741909 66.85543175 248.51776966 64.0625 252.0625 C63.55654297 252.67416016 63.05058594 253.28582031 62.52929688 253.91601562 C60.90198192 255.90736026 60.90198192 255.90736026 59 259 C59.51589365 263.11071628 61.91775882 266.14537137 64.1875 269.5 C68.34359005 275.7802769 71.80958889 282.1687668 75 289 C77.18663562 286.21203958 79.06156082 283.30459018 80.90332031 280.2800293 C94.07851552 258.89526789 111.51867352 247.22809129 135.94506836 241.31762695 C147.04280056 238.52275201 154.67001771 234.23500676 160.61132812 224.30761719 C162.36467288 221.18390043 164.06122156 218.03405058 165.75 214.875 C176.6390893 195.03638667 187.94096954 182.07053836 209 173 C221.34869949 169.41808556 235.63363887 171.58464219 246.8125 177.375 C250.42934782 179.5044271 253.2144509 181.82756908 256 185 C256.825 185.845625 257.65 186.69125 258.5 187.5625 C267.66967154 199.23563742 267.22970724 213.02811687 265.78027344 227.13916016 C265.19149294 231.52143324 264.1521239 235.73626874 263 240 C262.70996094 241.11592529 262.70996094 241.11592529 262.4140625 242.25439453 C258.9369114 255.47347128 254.02015801 267.743421 248 280 C247.6297168 280.75442383 247.25943359 281.50884766 246.87792969 282.28613281 C236.32367482 303.51595582 222.36527542 321.9286642 206 339 C205.10539062 339.94746094 204.21078125 340.89492188 203.2890625 341.87109375 C196.88733633 348.48871391 190.02911389 354.17710938 182.69921875 359.7109375 C181.11020877 360.91639335 179.53875452 362.14489337 177.96875 363.375 C170.34634123 369.27621969 162.38166988 374.27268326 154 379 C153.27925293 379.40895508 152.55850586 379.81791016 151.81591797 380.23925781 C139.63315156 387.08564049 127.18811022 392.40744051 114 397 C113.21689453 397.27827637 112.43378906 397.55655273 111.62695312 397.84326172 C101.94259334 401.25171205 92.18401726 403.7606942 82.125 405.8125 C81.1153418 406.01963623 80.10568359 406.22677246 79.06542969 406.44018555 C52.89100584 411.50310597 22.09893242 411.40079126 -4 406 C-4.96405762 405.80664062 -5.92811523 405.61328125 -6.92138672 405.4140625 C-51.28862565 396.28273939 -94.83446783 375.5497797 -127.36816406 343.60107422 C-129.14616861 341.85658682 -130.94435341 340.13418838 -132.7421875 338.41015625 C-140.94457298 330.46412762 -148.25182475 322.20557527 -155 313 C-155.4856543 312.34805664 -155.97130859 311.69611328 -156.47167969 311.02441406 C-164.28593323 300.50001479 -170.92597699 289.60772683 -177 278 C-177.36077637 277.3208252 -177.72155273 276.64165039 -178.09326172 275.94189453 C-190.46144751 252.57976581 -200.07784484 226.37553939 -200.3125 199.75 C-200.35600586 198.12771484 -200.35600586 198.12771484 -200.40039062 196.47265625 C-200.49355917 184.59008285 -196.55047176 175.97145323 -188.48046875 167.3828125 C-178.63174389 158.1331585 -165.94053573 154.45877167 -152.69921875 154.828125 C-132.70573131 156.10122695 -117.33499797 168.67770291 -104.5078125 183.12890625 C-102.36948194 185.57699498 -100.24489217 188.03596949 -98.125 190.5 C-90.28625172 199.44800511 -81.51430217 202.28056377 -70 204 C-70.0677916 203.17790039 -70.13558319 202.35580078 -70.20542908 201.50878906 C-71.22156022 188.40560256 -71.39596048 175.30772226 -71.49662876 162.17158508 C-71.52737487 158.16814086 -71.57428925 154.16628278 -71.65844727 150.16357422 C-71.74042056 146.25041605 -71.78306497 142.33865237 -71.79795647 138.42468262 C-71.81016251 136.94460284 -71.83609993 135.46456656 -71.87640572 133.98498535 C-72.17244074 122.57201737 -72.17244074 122.57201737 -69.42597961 118.88954163 C-67.36189991 117.29474683 -65.33934526 116.14658905 -63 115 C-61.76021418 114.22675466 -60.5256599 113.44504252 -59.29711914 112.65405273 C-58.04597321 111.90910624 -56.79189267 111.16906978 -55.53515625 110.43359375 C-54.85754745 110.03221695 -54.17993866 109.63084015 -53.48179626 109.21730042 C-51.34458351 107.95298498 -49.20356339 106.69528081 -47.0625 105.4375 C-45.63322572 104.59219887 -44.20418754 103.74649839 -42.77539062 102.90039062 C-39.4315087 100.9229146 -36.07987188 98.95924265 -32.72229004 97.00512695 C-31.20455308 96.119377 -29.69217608 95.22445634 -28.18066406 94.328125 C-24.31713288 92.08550981 -21.18185107 90.37570054 -16.625 90.125 C-15.81289062 90.06570312 -15.00078125 90.00640625 -14.1640625 89.9453125 C-12 90 -12 90 -9 91 C-9.00999275 89.3562867 -9.00999275 89.3562867 -9.02018738 87.67936707 C-9.08094011 77.36431565 -9.12594454 67.04930041 -9.15543652 56.73411083 C-9.17110823 51.43065638 -9.19237401 46.12734609 -9.22631836 40.82397461 C-9.25885805 35.70818472 -9.27684167 30.5925337 -9.28463173 25.47664833 C-9.29018494 23.52255377 -9.30102868 21.568467 -9.31719017 19.61443138 C-9.33889283 16.88235279 -9.34196994 14.15085176 -9.34057617 11.41870117 C-9.351362 10.60662201 -9.36214783 9.79454285 -9.3732605 8.95785522 C-9.34306409 3.50602011 -9.34306409 3.50602011 -7.64492798 1.00126648 C-4.92534847 -0.65413961 -3.14351669 -0.41307045 0 0 Z " fill="#0B7365" transform="translate(249,111)"/>
<path d="M0 0 C10.75646426 5.97263062 18.88963468 14.0577049 26.5625 23.5625 C36.57019288 35.93214837 45.15823108 42.52508573 61.2890625 44.61328125 C64.81491151 44.98071183 68.3421975 45.3147719 71.87207031 45.64038086 C98.81470269 48.16592414 124.16667443 53.75329255 148 67 C149.05058594 67.56332031 150.10117187 68.12664062 151.18359375 68.70703125 C178.86036148 84.07501541 197.663947 108.6730964 206.39794922 138.89208984 C206.59662598 139.5877002 206.79530273 140.28331055 207 141 C207.34160156 142.14082031 207.68320312 143.28164063 208.03515625 144.45703125 C210.21217617 153.15498527 210.27322813 161.75763791 210.3125 170.6875 C210.31813965 171.91122314 210.3237793 173.13494629 210.32958984 174.39575195 C210.25203329 184.13041437 209.56092663 193.84333151 206 203 C204.43067266 200.646009 203.31696494 198.63143669 202.1875 196.078125 C195.52175897 181.31661704 187.53077591 168.34140339 177 156 C176.32710937 155.20464844 175.65421875 154.40929687 174.9609375 153.58984375 C157.12143548 133.12306962 135.09695205 118.51309805 110.76611328 106.85058594 C109.24150892 106.11631422 107.7271273 105.3608858 106.21484375 104.6015625 C100.35687757 101.75859282 94.31257634 99.68009943 88.125 97.6875 C87.30346436 97.42050293 86.48192871 97.15350586 85.63549805 96.87841797 C79.93103016 95.03636484 79.93103016 95.03636484 74 95 C70.73472194 97.91227503 70.03859941 99.41135903 69.75 103.8125 C69.8325 104.864375 69.915 105.91625 70 107 C70.65484375 107.16363037 71.3096875 107.32726074 71.984375 107.49584961 C115.94788241 118.92527487 157.48273845 146.13557574 181.046875 185.45703125 C187.39215595 196.6905047 192.90623552 208.04752588 194 221 C168.84682212 221.60286009 144.89045907 220.86369007 121 212 C120.23268555 211.72172363 119.46537109 211.44344727 118.67480469 211.15673828 C101.8574496 204.99437412 86.08865054 197.1654204 72 186 C71.10152344 185.30390625 70.20304687 184.6078125 69.27734375 183.890625 C45.70813432 165.19437448 29.17125346 139.18348524 19 111 C18.69723145 110.175 18.39446289 109.35 18.08251953 108.5 C12.91913935 94.28682445 8.71203298 80.26225196 9 65 C9.85980469 65.32613281 10.71960938 65.65226562 11.60546875 65.98828125 C12.78753906 66.42527344 13.96960938 66.86226563 15.1875 67.3125 C16.33605469 67.74175781 17.48460938 68.17101562 18.66796875 68.61328125 C29.10311598 72.11627285 39.01219316 73.48524555 50 73.375 C51.18722656 73.38660156 52.37445313 73.39820313 53.59765625 73.41015625 C55.31275391 73.40435547 55.31275391 73.40435547 57.0625 73.3984375 C58.59583984 73.39336182 58.59583984 73.39336182 60.16015625 73.38818359 C63.73038811 72.90016187 66.43330549 71.56669451 69 69 C69.07179964 67.48071962 69.08392007 65.95832518 69.0625 64.4375 C69.05347656 63.61121094 69.04445313 62.78492188 69.03515625 61.93359375 C69.02355469 61.29550781 69.01195312 60.65742188 69 60 C67.792229 59.97812622 67.792229 59.97812622 66.56005859 59.95581055 C63.49932107 59.89382481 60.43916891 59.81952015 57.37890625 59.73754883 C55.43249854 59.68893606 53.48576809 59.65383243 51.5390625 59.61914062 C39.80962072 59.28999813 28.6589601 57.47188834 17.75 53.0625 C17.08307129 52.80452637 16.41614258 52.54655273 15.72900391 52.28076172 C12.79147211 51.13858567 9.8799887 49.94929755 6.9765625 48.72265625 C2.49463566 46.83163306 -1.01976337 45.36150812 -6 46 C-7.30309364 47.07940172 -7.30309364 47.07940172 -7.1328125 49.66796875 C-7.11394861 58.16615083 -6.72086658 66.52981763 -6 75 C-19.97220602 72.671299 -29.82281054 65.32787006 -40 56 C-40.58394531 55.53335938 -41.16789062 55.06671875 -41.76953125 54.5859375 C-47.75466297 46.87176773 -47.71735732 29.47453061 -47 20 C-45.75391419 12.91217247 -42.38321793 7.72908189 -37 3 C-34.43378362 1.33047313 -31.86047844 0.08003111 -29 -1 C-28.05769531 -1.35707031 -27.11539063 -1.71414063 -26.14453125 -2.08203125 C-17.65433451 -4.56053589 -8.01149641 -3.67761118 0 0 Z " fill="#8CCA71" transform="translate(110,284)"/>
<path d="M0 0 C0.99 0.495 0.99 0.495 2 1 C2 37.3 2 73.6 2 111 C1.34 111 0.68 111 0 111 C0 111.99 0 112.98 0 114 C-0.639375 114.2475 -1.27875 114.495 -1.9375 114.75 C-4.18741541 115.81562433 -4.18741541 115.81562433 -4.75 118.125 C-4.8325 118.74375 -4.915 119.3625 -5 120 C-3.02 120.99 -1.04 121.98 1 123 C0.67 123.99 0.34 124.98 0 126 C-0.54785156 125.82984375 -1.09570312 125.6596875 -1.66015625 125.484375 C-4.43444186 124.6363007 -7.21631087 123.81668782 -10 123 C-11.04285156 122.68675781 -12.08570313 122.37351562 -13.16015625 122.05078125 C-28.67358522 117.62586859 -44.6213023 115.229336 -60.6875 114 C-78.18200467 112.63200866 -89.09078375 107.00606224 -101 94 C-103.36504463 91.20017697 -105.66459932 88.35622275 -107.9609375 85.5 C-116.58708063 74.92388582 -127.24311574 67.22268544 -141.05859375 65.65234375 C-150.19136434 65.22475905 -158.96841819 67.00943512 -166.265625 72.796875 C-171.7918371 78.60171965 -174.07496726 85.06713424 -174.375 93 C-174.11254811 102.27767428 -173.24372219 117.0918986 -167.00390625 124.30859375 C-156.72798795 133.2691945 -146.91497471 138.90868684 -134 143 C-134.144375 142.15179688 -134.28875 141.30359375 -134.4375 140.4296875 C-135.77193548 131.99679664 -136.8209743 123.54779128 -136 115 C-134 113 -134 113 -132.12597656 112.90698242 C-126.51662045 113.56189742 -121.87927986 114.9924278 -116.75 117.3125 C-101.03750611 124.09105104 -87.52005257 126.1804652 -70.51953125 126.4296875 C-69.34261719 126.460625 -68.16570312 126.4915625 -66.953125 126.5234375 C-65.34679199 126.5531665 -65.34679199 126.5531665 -63.70800781 126.58349609 C-61 127 -61 127 -59.15527344 128.31494141 C-57.17887423 131.19767753 -57.58643767 133.63242105 -58 137 C-60.21863029 139.90717073 -61.51944929 140.83981643 -65 142 C-83.45926586 143.28164794 -101.28895091 142.50744317 -118 134 C-117.1366679 158.43229853 -108.61923451 181.69616214 -97 203 C-96.68063477 203.5971582 -96.36126953 204.19431641 -96.03222656 204.80957031 C-86.93822002 221.75119672 -75.7293185 236.53405195 -61 249 C-61.66 249.33 -62.32 249.66 -63 250 C-63 250.99 -63 251.98 -63 253 C-66.875 252.125 -66.875 252.125 -68 251 C-68.04063832 249.33382885 -68.042721 247.66611905 -68 246 C-69.65 246.33 -71.3 246.66 -73 247 C-72.67 247.99 -72.34 248.98 -72 250 C-72.66 250 -73.32 250 -74 250 C-73.65555119 252.47266765 -73.65555119 252.47266765 -73 255 C-72.34 255.33 -71.68 255.66 -71 256 C-71.33 258.31 -71.66 260.62 -72 263 C-72.99 262.67 -73.98 262.34 -75 262 C-75.33 262.99 -75.66 263.98 -76 265 C-76.99 265 -77.98 265 -79 265 C-69.10927936 270.56642093 -59.22605703 276.06743131 -49 281 C-52 282 -52 282 -54.16625977 281.20239258 C-54.99955811 280.77079834 -55.83285645 280.3392041 -56.69140625 279.89453125 C-57.62742676 279.41161621 -58.56344727 278.92870117 -59.52783203 278.43115234 C-60.52927246 277.89699707 -61.53071289 277.3628418 -62.5625 276.8125 C-63.5922998 276.26803223 -64.62209961 275.72356445 -65.68310547 275.16259766 C-84.84936262 264.85461991 -102.31495918 252.07905991 -118 237 C-118.59603027 236.43120117 -119.19206055 235.86240234 -119.80615234 235.27636719 C-128.70359571 226.74381768 -136.71314289 217.94042228 -144 208 C-144.72848145 207.02208496 -144.72848145 207.02208496 -145.47167969 206.02441406 C-153.28593323 195.50001479 -159.92597699 184.60772683 -166 173 C-166.54116455 171.98123779 -166.54116455 171.98123779 -167.09326172 170.94189453 C-179.46144751 147.57976581 -189.07784484 121.37553939 -189.3125 94.75 C-189.34150391 93.66847656 -189.37050781 92.58695312 -189.40039062 91.47265625 C-189.49355917 79.59008285 -185.55047176 70.97145323 -177.48046875 62.3828125 C-167.63174389 53.1331585 -154.94053573 49.45877167 -141.69921875 49.828125 C-121.70573131 51.10122695 -106.33499797 63.67770291 -93.5078125 78.12890625 C-91.36948194 80.57699498 -89.24489217 83.03596949 -87.125 85.5 C-80.74227187 92.78594438 -73.72960005 96.49707548 -64.1953125 98.1171875 C-63.21836426 98.28589355 -62.24141602 98.45459961 -61.23486328 98.62841797 C-60.4973584 98.75104004 -59.75985352 98.87366211 -59 99 C-59.00523682 97.97342285 -59.01047363 96.9468457 -59.01586914 95.88916016 C-59.03432186 91.98633742 -59.04557497 88.0835183 -59.05493164 84.18066406 C-59.0598818 82.50910794 -59.06664362 80.83755594 -59.07543945 79.16601562 C-59.13565888 67.40551632 -58.78251018 55.73500615 -58 44 C-57.67 44 -57.34 44 -57 44 C-56.00137301 51.36487404 -55.89668969 58.57313685 -56 66 C-55.21625 65.814375 -54.4325 65.62875 -53.625 65.4375 C-51 65 -51 65 -49 66 C-48.67 66.99 -48.34 67.98 -48 69 C-47.12487181 62.20962336 -47.0201049 55.79537822 -47.703125 48.98828125 C-49.4806131 27.65135222 -49.4806131 27.65135222 -44.76989746 21.35614014 C-38.18676601 14.75646816 -29.08631219 11.02832463 -20.58691406 7.54101562 C-16.32700941 5.71086873 -12.41628565 3.48295971 -8.46044922 1.07519531 C-5.46091824 -0.23557413 -3.24227547 -0.25740374 0 0 Z " fill="#126D61" transform="translate(238,216)"/>
<path d="M0 0 C5.2471785 3.59017476 9.6291861 8.61871657 12.15234375 14.47265625 C13.8596936 26.97791781 12.05893642 39.59158435 8.15234375 51.47265625 C7.7663501 52.67003418 7.7663501 52.67003418 7.37255859 53.89160156 C3.9497884 64.39451328 0.13663695 74.59878327 -4.84765625 84.47265625 C-5.32259521 85.43220215 -5.32259521 85.43220215 -5.80712891 86.41113281 C-13.88274693 102.65435501 -23.8474776 116.9048867 -35.84765625 130.47265625 C-36.91886719 131.72755859 -36.91886719 131.72755859 -38.01171875 133.0078125 C-63.23174651 162.05335008 -96.71231531 182.01494755 -132.84765625 194.47265625 C-134.00394531 194.89546875 -135.16023438 195.31828125 -136.3515625 195.75390625 C-144.61885745 198.69869482 -144.61885745 198.69869482 -148.84765625 197.47265625 C-144.49118075 192.79625208 -140.12100601 188.13314411 -135.73608398 183.48339844 C-134.40279103 182.0637474 -133.07662837 180.63738354 -131.75561523 179.20629883 C-118.09789424 164.52592007 -99.63815558 155.16410461 -82.11328125 145.98046875 C-81.41533447 145.61405273 -80.7173877 145.24763672 -79.99829102 144.87011719 C-78.17671037 143.92138199 -76.34649783 142.9892705 -74.515625 142.05859375 C-71.6180452 140.59601105 -71.6180452 140.59601105 -69.84765625 137.47265625 C-69.51427029 133.93077794 -69.51427029 133.93077794 -69.84765625 130.47265625 C-71.72371443 128.21236779 -71.72371443 128.21236779 -74.6953125 127.98046875 C-80.73359473 128.17067542 -86.05012678 131.62794493 -91.28515625 134.34765625 C-92.44225098 134.93901367 -93.5993457 135.53037109 -94.79150391 136.13964844 C-117.33743405 147.804484 -136.06828917 162.38907946 -153.84765625 180.47265625 C-154.84765625 178.47265625 -154.84765625 178.47265625 -154.26196289 176.11279297 C-153.1563732 172.8532791 -152.04841374 169.59595348 -150.91015625 166.34765625 C-150.49846191 165.16945313 -150.08676758 163.99125 -149.66259766 162.77734375 C-142.22689567 141.95166939 -131.78151396 120.53253787 -110.84765625 110.47265625 C-103.02532779 106.83171111 -95.17380209 105.166478 -86.72265625 103.59765625 C-62.50735638 98.83179831 -40.5187084 90.48621567 -25.84765625 69.47265625 C-20.3793193 61.27552137 -20.3793193 61.27552137 -18.78515625 51.78515625 C-18.79417969 50.97691406 -18.80320312 50.16867187 -18.8125 49.3359375 C-18.82410156 48.72105469 -18.83570313 48.10617187 -18.84765625 47.47265625 C-24.48424049 46.90270368 -24.48424049 46.90270368 -29.41015625 49.22265625 C-32.55138588 52.91201991 -34.71975575 57.36031508 -37.1171875 61.546875 C-45.65178384 75.97670042 -61.85749125 83.92659463 -77.59765625 88.16015625 C-81.82072287 89.13297985 -86.05760775 89.83226164 -90.33789062 90.48803711 C-112.73528955 93.95643162 -130.99940052 102.6854586 -144.66015625 121.16015625 C-145.23185547 121.91876953 -145.80355469 122.67738281 -146.39257812 123.45898438 C-148.61943684 126.42376807 -150.79028747 129.38660308 -152.84765625 132.47265625 C-153.50765625 132.47265625 -154.16765625 132.47265625 -154.84765625 132.47265625 C-154.9030165 130.82722661 -154.94104473 129.18121341 -154.97265625 127.53515625 C-154.99585938 126.61863281 -155.0190625 125.70210937 -155.04296875 124.7578125 C-154.58370001 117.03291235 -152.37108574 110.71253592 -148.66015625 103.97265625 C-148.25869385 103.23217041 -147.85723145 102.49168457 -147.44360352 101.72875977 C-144.38815382 96.20612398 -141.08416408 91.17132857 -136.84765625 86.47265625 C-136.28046875 85.80234375 -135.71328125 85.13203125 -135.12890625 84.44140625 C-125.21372702 73.51790371 -111.82436953 68.81061058 -97.828125 65.5234375 C-85.2044159 62.5501029 -75.07193964 59.09953929 -66.84765625 48.47265625 C-64.55766603 44.56505592 -62.61703495 40.54534239 -60.7421875 36.42431641 C-53.25083243 20.07991344 -45.58860116 5.67580433 -28.03515625 -1.6796875 C-19.17258072 -4.03652438 -8.3673956 -3.99060406 0 0 Z " fill="#33C4BA" transform="translate(487.84765625,300.52734375)"/>
<path d="M0 0 C6.74487321 2.24829107 6.74487321 2.24829107 9.79296875 3.890625 C10.84121826 4.44955444 10.84121826 4.44955444 11.91064453 5.01977539 C12.66200684 5.42574951 13.41336914 5.83172363 14.1875 6.25 C15.87578926 7.15070148 17.56462466 8.05037978 19.25390625 8.94921875 C20.16930176 9.43696777 21.08469727 9.9247168 22.02783203 10.42724609 C28.61543412 13.91314495 35.24591021 17.31737044 41.86791992 20.73730469 C48.2399731 24.03374171 54.59250068 27.36421651 60.93115234 30.72436523 C62.1006971 31.34395741 62.1006971 31.34395741 63.29386902 31.97606659 C65.19603156 32.98382004 67.0980326 33.9918783 69 35 C69.30418219 56.56639508 69.53316822 78.13243467 69.67355824 99.70054245 C69.74048811 109.71596899 69.83167052 119.73005992 69.98071289 129.74462891 C70.11061408 138.47724015 70.19423211 147.20888394 70.22315043 155.94243455 C70.24004685 160.56401545 70.27951347 165.18282969 70.37449074 169.8035202 C70.4633298 174.16125602 70.48983974 178.51511135 70.47039986 182.87366676 C70.47395078 184.46527341 70.49947604 186.0570216 70.54967117 187.6478405 C70.75030387 194.33968217 70.85809054 200.32436692 66.13464928 205.56479645 C62.96397165 208.658658 59.51461405 211.30999173 56 214 C53.3090838 216.64748781 50.86187408 219.49092005 48.36328125 222.3203125 C47.25746406 223.56066531 46.13104897 224.78261141 45 226 C44.67 226 44.34 226 44 226 C44 201.25 44 176.5 44 151 C38.06 151 32.12 151 26 151 C26 172.45 26 193.9 26 216 C22.77379292 214.70951717 20.29496449 213.69935464 17.44140625 211.94140625 C16.49104492 211.36229492 16.49104492 211.36229492 15.52148438 210.77148438 C14.87501953 210.37251953 14.22855469 209.97355469 13.5625 209.5625 C12.27347612 208.76995071 10.98312693 207.97955257 9.69140625 207.19140625 C9.12623291 206.84279541 8.56105957 206.49418457 7.97875977 206.13500977 C5.38033968 204.64456498 2.67928536 203.33964268 0 202 C0 135.34 0 68.68 0 0 Z " fill="#A3D678" transform="translate(254,131)"/>
<path d="M0 0 C2.94254938 1.10947426 5.67619738 2.5465462 8.44921875 4.0234375 C9.26131302 4.44364166 10.07340729 4.86384583 10.91011047 5.29678345 C13.50866721 6.64484135 16.09803253 8.00957852 18.6875 9.375 C20.37767869 10.25501441 22.06842967 11.13393059 23.75976562 12.01171875 C28.84867411 14.65777564 33.9255225 17.3263946 39 20 C40.67869968 20.88389182 42.35741052 21.76776245 44.03613281 22.65161133 C46.46450722 23.93025677 48.89283316 25.20899306 51.32087708 26.48826599 C59.06159377 30.56448445 66.82824792 34.58981264 74.6015625 38.60351562 C75.62765625 39.13525391 76.65375 39.66699219 77.7109375 40.21484375 C78.61118652 40.68011475 79.51143555 41.14538574 80.43896484 41.62475586 C87.78464847 45.56929693 87.78464847 45.56929693 89 48 C89.12197488 50.40973615 89.18559594 52.79254882 89.20532227 55.20361328 C89.21522186 55.9451767 89.22512146 56.68674011 89.23532104 57.45077515 C89.26696363 59.90725488 89.29170431 62.36375397 89.31640625 64.8203125 C89.3369734 66.521398 89.35796981 68.22247836 89.37937927 69.92355347 C89.43462464 74.40500736 89.48402303 78.88650756 89.53222656 83.36804199 C89.5824236 87.93941377 89.63811904 92.51071813 89.69335938 97.08203125 C89.80097109 106.05462994 89.90240936 115.02728711 90 124 C90.66749268 123.38729248 91.33498535 122.77458496 92.02270508 122.14331055 C92.90853271 121.33676025 93.79436035 120.53020996 94.70703125 119.69921875 C95.58077393 118.90088623 96.4545166 118.10255371 97.35473633 117.2800293 C111.45512319 105.12649788 131.10626882 99.84143769 149.35546875 99.50390625 C152 100 152 100 153.64300537 101.7364502 C155.19697501 104.32856633 155.36980694 105.71589897 155.35644531 108.71289062 C155.35938599 109.65323151 155.36232666 110.59357239 155.36535645 111.56240845 C155.35307007 112.58337616 155.34078369 113.60434387 155.328125 114.65625 C155.32679565 115.73095551 155.32546631 116.80566101 155.32409668 117.91293335 C155.31512859 121.44222243 155.28360458 124.97086553 155.25 128.5 C155.23537161 130.93505488 155.22137948 133.37011367 155.20800781 135.80517578 C155.16841669 142.00548381 155.10603293 148.20535234 155.03710938 154.40539551 C155.00158208 157.84675188 154.97548455 161.28802775 154.953125 164.72949219 C154.91879267 169.83282441 154.86332438 174.93543368 154.78845215 180.03833008 C154.76299927 181.91602523 154.74346285 183.79381073 154.73010254 185.67163086 C154.70889816 188.27918411 154.66256027 190.88511615 154.609375 193.4921875 C154.60812622 194.24196869 154.60687744 194.99174988 154.60559082 195.76425171 C154.4237058 202.30141863 152.34568604 207.65431396 147.6875 212.3125 C139.44105997 217.49049723 132.47557184 217.32926697 123 217 C123 216.67 123 216.34 123 216 C125.64 215.67 128.28 215.34 131 215 C130.34 214.67 129.68 214.34 129 214 C129.185625 212.865625 129.37125 211.73125 129.5625 210.5625 C129.706875 209.386875 129.85125 208.21125 130 207 C129.01084774 205.79216942 129.01084774 205.79216942 127.1015625 205.8671875 C120.68693981 205.8874229 114.37771087 206.32100417 108 207 C114.38551716 200.61448284 130.3084035 201.85026898 139 201 C138.99419922 199.79907715 138.98839844 198.5981543 138.98242188 197.36083984 C138.92966849 180.84436331 139.18785952 164.33483224 139.46356201 147.82141113 C139.52519619 144.10622236 139.58476279 140.39100042 139.64453125 136.67578125 C139.76105872 129.45048789 139.87978078 122.22523298 140 115 C137.30890058 115.7568658 134.62077319 116.52240605 131.93359375 117.29296875 C130.80455627 117.6090509 130.80455627 117.6090509 129.65270996 117.93151855 C118.34225886 121.19585486 108.65668095 127.03975818 100 135 C99.13463623 135.70600342 98.26927246 136.41200684 97.37768555 137.1394043 C88.7222753 145.81581694 88.89662299 155.48298819 88.8445282 167.16638184 C88.85031546 170.77182741 88.90366708 174.37562369 88.96636963 177.98046875 C89.04440432 183.10158406 89.04180575 188.22343701 89.04931641 193.345047 C89.05353778 196.06449873 89.07928924 198.78241216 89.12255859 201.50151062 C89.13496582 202.72070694 89.14737305 203.93990326 89.16015625 205.19604492 C89.18541382 206.80934944 89.18541382 206.80934944 89.21118164 208.45524597 C89 211 89 211 87 213 C87 195.51 87 178.02 87 160 C85.35 160.99 83.7 161.98 82 163 C81.01 162.67 80.02 162.34 79 162 C76.36209266 164.63790734 76.72898064 165.86849082 76.68115234 169.55126953 C76.66128265 170.71232208 76.64141296 171.87337463 76.62094116 173.0696106 C76.60938995 174.32796722 76.59783875 175.58632385 76.5859375 176.8828125 C76.56657135 178.16735321 76.5472052 179.45189392 76.5272522 180.77536011 C76.47586059 184.19147535 76.43627286 187.60763007 76.39910889 191.02392578 C76.35911302 194.50953999 76.30800062 197.99498903 76.2578125 201.48046875 C76.16097025 208.3201919 76.0765922 215.16002096 76 222 C75.67 222 75.34 222 75 222 C74.67 167.22 74.34 112.44 74 56 C62.45 50.06 50.9 44.12 39 38 C27.63549291 32.05345559 16.31782489 26.03617328 5 20 C5 86.66 5 153.32 5 222 C4.01 222.33 3.02 222.66 2 223 C1.360625 223.680625 0.72125 224.36125 0.0625 225.0625 C-2 227 -2 227 -6 227 C-6.33 227.99 -6.66 228.98 -7 230 C-9.0625 230.6875 -9.0625 230.6875 -11 231 C-10.67 230.01 -10.34 229.02 -10 228 C-12.31 227.34 -14.62 226.68 -17 226 C-16.25 223.0625 -16.25 223.0625 -15 220 C-12.875 219.125 -12.875 219.125 -11 219 C-11 218.01 -11 217.02 -11 216 C-10.34 216 -9.68 216 -9 216 C-9 179.7 -9 143.4 -9 106 C-16.04592071 105.68052765 -16.04592071 105.68052765 -21.5234375 108.01953125 C-22.70123779 108.68021606 -22.70123779 108.68021606 -23.90283203 109.35424805 C-24.71864746 109.83547119 -25.53446289 110.31669434 -26.375 110.8125 C-27.23335449 111.30081299 -28.09170898 111.78912598 -28.97607422 112.29223633 C-35.88741998 116.25577977 -42.6987122 120.39807005 -49.43896484 124.64575195 C-54.79520875 128 -54.79520875 128 -57 128 C-56.99476318 128.96188232 -56.98952637 129.92376465 -56.98413086 130.91479492 C-56.96577533 134.54727211 -56.95445857 138.17974537 -56.94506836 141.81225586 C-56.94009693 143.37248427 -56.93331743 144.93270817 -56.92456055 146.49291992 C-56.87230315 156.05602403 -57.06963079 165.47289338 -58 175 C-58.86625 174.2575 -58.86625 174.2575 -59.75 173.5 C-62.10400629 171.63019987 -62.10400629 171.63019987 -66 172 C-66.495 173.98 -66.495 173.98 -67 176 C-67.33 176 -67.66 176 -68 176 C-68 169.73 -68 163.46 -68 157 C-68.80823446 164.37598844 -69.27483417 171.71171014 -69.5625 179.125 C-69.62727539 180.7028125 -69.62727539 180.7028125 -69.69335938 182.3125 C-69.79818509 184.87490627 -69.90035355 187.43738799 -70 190 C-70.33 190 -70.66 190 -71 190 C-71.18561055 181.10742381 -71.32762925 172.21551717 -71.41449738 163.32142448 C-71.45619739 159.19112465 -71.5127229 155.06215271 -71.60351562 150.93261719 C-71.69063883 146.94488681 -71.73831316 142.95843076 -71.75901794 138.96982193 C-71.77376575 137.45064353 -71.80256812 135.93153262 -71.84584045 134.41289902 C-72.16914955 122.59302571 -72.16914955 122.59302571 -69.4282074 118.85835266 C-67.36258555 117.26282953 -65.34805602 116.1318854 -63 115 C-61.75962349 114.22770255 -60.5250387 113.44600652 -59.29711914 112.65405273 C-58.04597321 111.90910624 -56.79189267 111.16906978 -55.53515625 110.43359375 C-54.51874306 109.83152855 -54.51874306 109.83152855 -53.48179626 109.21730042 C-51.34458351 107.95298498 -49.20356339 106.69528081 -47.0625 105.4375 C-45.63322572 104.59219887 -44.20418754 103.74649839 -42.77539062 102.90039062 C-39.4315087 100.9229146 -36.07987188 98.95924265 -32.72229004 97.00512695 C-31.20455308 96.119377 -29.69217608 95.22445634 -28.18066406 94.328125 C-24.31713288 92.08550981 -21.18185107 90.37570054 -16.625 90.125 C-15.81289062 90.06570312 -15.00078125 90.00640625 -14.1640625 89.9453125 C-12 90 -12 90 -9 91 C-9.00666183 89.90419113 -9.01332367 88.80838226 -9.02018738 87.67936707 C-9.08094011 77.36431565 -9.12594454 67.04930041 -9.15543652 56.73411083 C-9.17110823 51.43065638 -9.19237401 46.12734609 -9.22631836 40.82397461 C-9.25885805 35.70818472 -9.27684167 30.5925337 -9.28463173 25.47664833 C-9.29018494 23.52255377 -9.30102868 21.568467 -9.31719017 19.61443138 C-9.33889283 16.88235279 -9.34196994 14.15085176 -9.34057617 11.41870117 C-9.351362 10.60662201 -9.36214783 9.79454285 -9.3732605 8.95785522 C-9.34306409 3.50602011 -9.34306409 3.50602011 -7.64492798 1.00126648 C-4.92534847 -0.65413961 -3.14351669 -0.41307045 0 0 Z " fill="#12605B" transform="translate(249,111)"/>
<path d="M0 0 C0.33 0 0.66 0 1 0 C1.33 32.01 1.66 64.02 2 97 C2.33 97 2.66 97 3 97 C3.495 100.96 3.495 100.96 4 105 C6.78823655 106.0326802 7.8677274 106.04509293 10.75 105.0625 C11.4925 104.711875 12.235 104.36125 13 104 C13.96813254 106.90439761 14.12144834 108.7281824 14.11352539 111.74682617 C14.11341209 113.18798042 14.11341209 113.18798042 14.11329651 114.6582489 C14.10813522 115.69270645 14.10297394 116.727164 14.09765625 117.79296875 C14.0962413 118.85413406 14.09482635 119.91529938 14.09336853 121.00862122 C14.08776606 124.40160935 14.07521314 127.79453177 14.0625 131.1875 C14.05748532 133.48632717 14.05292236 135.78515538 14.04882812 138.08398438 C14.03779583 143.72267872 14.0210553 149.36133466 14 155 C13.96840142 146.94077891 13.97478753 138.88283018 14.02846622 130.82376957 C14.05222958 127.08071985 14.06334911 123.33855664 14.04467773 119.59545898 C14.02710739 115.97683416 14.04391931 112.35979446 14.08367729 108.74136162 C14.09290694 107.36724003 14.09015097 105.9929793 14.07469368 104.61891365 C13.99060116 96.33270467 14.56067979 90.9578733 20.28837585 84.72915649 C21.13562981 83.87322403 21.13562981 83.87322403 22 83 C22.71671875 82.06800781 23.4334375 81.13601562 24.171875 80.17578125 C29.52256148 73.8075497 36.43961777 69.47987141 43.75 65.6875 C44.35618164 65.36225342 44.96236328 65.03700684 45.58691406 64.7019043 C50.02857757 62.50107489 54.42908039 61.39399787 59.28222656 60.38989258 C60.5408551 60.12735184 61.79948364 59.8648111 63.09625244 59.59431458 C64.53360748 59.30012886 64.53360748 59.30012886 66 59 C66.02348954 66.96460414 66.04109694 74.92919307 66.05181217 82.89382362 C66.05696288 86.59475581 66.06391238 90.29566378 66.07543945 93.99658203 C66.12711367 111.02267358 66.01181463 127.99649515 65 145 C56.48823213 147.19818579 56.48823213 147.19818579 52.640625 147.59765625 C51.55587891 147.71657227 51.55587891 147.71657227 50.44921875 147.83789062 C49.36060547 147.94907227 49.36060547 147.94907227 48.25 148.0625 C42.07017877 148.7092649 42.07017877 148.7092649 36 150 C37.27875 149.835 38.5575 149.67 39.875 149.5 C43.37533066 149.12338214 46.85546955 148.8535156 50.375 148.75 C51.59316406 148.71132813 51.59316406 148.71132813 52.8359375 148.671875 C55.4850594 149.07354691 56.33548119 149.95962211 58 152 C57.34 152 56.68 152 56 152 C55.67 153.98 55.34 155.96 55 158 C58.3 158 61.6 158 65 158 C65 158.33 65 158.66 65 159 C58.565 159.99 58.565 159.99 52 161 C52 161.33 52 161.66 52 162 C50.91203125 162.15855469 49.8240625 162.31710937 48.703125 162.48046875 C39.52567338 163.90246028 31.38345808 165.83195304 23 170 C22.06671875 170.45375 21.1334375 170.9075 20.171875 171.375 C13.44303622 174.83339759 7.75150573 179.11451477 2 184 C1.03578125 184.76054687 0.0715625 185.52109375 -0.921875 186.3046875 C-4.38817597 189.19667701 -7.15129131 192.52630243 -9.9375 196.0625 C-10.44345703 196.67416016 -10.94941406 197.28582031 -11.47070312 197.91601562 C-13.09801808 199.90736026 -13.09801808 199.90736026 -15 203 C-14.48259872 207.14978997 -12.03475526 210.23461427 -9.75 213.625 C-1.80511971 225.71950614 -1.80511971 225.71950614 0 231 C-0.33 231.99 -0.66 232.98 -1 234 C-1.26103516 233.48203857 -1.52207031 232.96407715 -1.79101562 232.43041992 C-9.17434148 215.03130933 -9.17434148 215.03130933 -22 203 C-21.7525 203.5775 -21.505 204.155 -21.25 204.75 C-21.1675 205.4925 -21.085 206.235 -21 207 C-22.8125 209.25 -22.8125 209.25 -25 211 C-25.66 211 -26.32 211 -27 211 C-26.01 212.98 -26.01 212.98 -25 215 C-24.01 214.67 -23.02 214.34 -22 214 C-22.226875 214.5775 -22.45375 215.155 -22.6875 215.75 C-23.28115446 218.11481756 -23.28115446 218.11481756 -21.5 220.0625 C-21.005 220.701875 -20.51 221.34125 -20 222 C-20.33 222.99 -20.66 223.98 -21 225 C-21.60134766 224.09121094 -21.60134766 224.09121094 -22.21484375 223.1640625 C-37.39037348 200.79650167 -58.89950827 185.59865841 -84 176 C-81.05470757 171.69534183 -78.91736035 170.49658793 -74 169 C-73.34 168.01 -72.68 167.02 -72 166 C-68.2942454 165.50503102 -65.98641958 166.22057315 -62.78515625 168.046875 C-62.01623047 168.48 -61.24730469 168.913125 -60.45507812 169.359375 C-59.66552734 169.81828125 -58.87597656 170.2771875 -58.0625 170.75 C-57.27681641 171.1934375 -56.49113281 171.636875 -55.68164062 172.09375 C-51.31330112 174.57949968 -47.19811729 177.20125514 -43 180 C-43 158.55 -43 137.1 -43 115 C-37.06 115 -31.12 115 -25 115 C-24.67 139.42 -24.34 163.84 -24 189 C-19.38 184.05 -14.76 179.1 -10 174 C-8.24921646 172.70364624 -6.49843292 171.40729248 -4.69459534 170.07165527 C-0.76252482 166.66449504 -0.30828662 163.8617199 0.12025452 158.73596191 C0.20022161 155.77240556 0.1598404 152.81738285 0.11352539 149.85351562 C0.12085692 148.21686667 0.13214161 146.58023138 0.14706421 144.94363403 C0.1762855 140.5179725 0.15043999 136.0941665 0.11447453 131.66861916 C0.08627816 127.03742254 0.10904111 122.4064785 0.12632751 117.77526855 C0.15132569 109.01335924 0.13069841 100.25217912 0.09355396 91.49033689 C0.05348328 81.51203535 0.0644651 71.5339925 0.07967007 61.55564594 C0.10979614 41.03687911 0.07602217 20.51863015 0 0 Z " fill="#196B5F" transform="translate(323,167)"/>
<path d="M0 0 C1.34351532 -0.00855011 1.34351532 -0.00855011 2.71417236 -0.01727295 C4.60679971 -0.02667634 6.49944309 -0.03323827 8.39208984 -0.03710938 C11.21613267 -0.0467068 14.03941204 -0.07772947 16.86328125 -0.109375 C29.34068657 -0.18221095 41.25167585 0.91888593 53.515625 3.203125 C54.56427734 3.39664551 55.61292969 3.59016602 56.69335938 3.78955078 C59.10850589 4.27248922 61.49812102 4.80652261 63.890625 5.390625 C64.74672363 5.59929199 65.60282227 5.80795898 66.48486328 6.02294922 C96.95982258 13.78152054 126.19022707 28.27799014 150.515625 48.203125 C151.03398926 48.61997559 151.55235352 49.03682617 152.08642578 49.46630859 C169.91272473 63.82044977 184.50227595 80.43603268 197.515625 99.203125 C198.26328125 100.26789063 199.0109375 101.33265625 199.78125 102.4296875 C201.84743311 105.73371905 202.086079 107.37293387 201.515625 111.203125 C200.578125 114.078125 200.578125 114.078125 198.515625 116.203125 C195.25825828 117.30191737 192.77310889 117.31263713 189.515625 116.203125 C186.57281459 113.26660265 184.65546188 109.74621003 182.515625 106.203125 C170.79976744 89.64167975 157.49443823 74.74539895 141.515625 62.203125 C140.19691406 61.14158203 140.19691406 61.14158203 138.8515625 60.05859375 C96.50918514 26.95997483 41.91043087 12.02753636 -11.38671875 17.73828125 C-15.37333437 18.26365508 -19.3141342 18.95463446 -23.25439453 19.75439453 C-25.53248633 20.21280626 -27.81590054 20.61497568 -30.10546875 21.01171875 C-68.6010154 28.00616111 -103.37883216 47.41563521 -131.484375 74.203125 C-132.32613281 74.98042969 -133.16789062 75.75773437 -134.03515625 76.55859375 C-139.90687093 82.14936514 -144.7064637 88.24445743 -149.375 94.84643555 C-149.85195312 95.51070557 -150.32890625 96.17497559 -150.8203125 96.859375 C-151.23845215 97.45556641 -151.6565918 98.05175781 -152.08740234 98.66601562 C-153.74787071 100.49305317 -155.19254123 101.30419428 -157.484375 102.203125 C-160.734375 102.328125 -160.734375 102.328125 -163.484375 102.203125 C-166.17269318 97.61058145 -167.13359995 94.5124646 -166.484375 89.203125 C-164.86151257 86.32362461 -162.78567312 83.93001845 -160.609375 81.453125 C-160.01874268 80.75646729 -159.42811035 80.05980957 -158.81958008 79.34204102 C-157.05964377 77.27883952 -155.27607517 75.23875359 -153.484375 73.203125 C-152.99984863 72.64415527 -152.51532227 72.08518555 -152.01611328 71.50927734 C-146.87075987 65.58040563 -141.50979719 60.22081107 -135.484375 55.203125 C-134.03417969 53.93855469 -134.03417969 53.93855469 -132.5546875 52.6484375 C-100.3731739 24.65489543 -59.66759205 6.95339433 -17.484375 1.203125 C-15.6746521 0.94511108 -15.6746521 0.94511108 -13.82836914 0.68188477 C-9.21589766 0.11125637 -4.64348711 0.0235903 0 0 Z " fill="#3FA365" transform="translate(273.484375,63.796875)"/>
<path d="M0 0 C0.99 0.495 0.99 0.495 2 1 C-23.74214433 54.28958189 -68.62768376 94.17868633 -124.46484375 113.78125 C-126.21474609 114.38453125 -126.21474609 114.38453125 -128 115 C-129.15628906 115.4228125 -130.31257813 115.845625 -131.50390625 116.28125 C-139.7712012 119.22603857 -139.7712012 119.22603857 -144 118 C-139.6435245 113.32359583 -135.27334976 108.66048786 -130.88842773 104.01074219 C-129.55513478 102.59109115 -128.22897212 101.16472729 -126.90795898 99.73364258 C-113.25023799 85.05326382 -94.79049933 75.69144836 -77.265625 66.5078125 C-76.56767822 66.14139648 -75.86973145 65.77498047 -75.15063477 65.39746094 C-73.32905412 64.44872574 -71.49884158 63.51661425 -69.66796875 62.5859375 C-66.77038895 61.1233548 -66.77038895 61.1233548 -65 58 C-64.66661404 54.45812169 -64.66661404 54.45812169 -65 51 C-66.87605818 48.73971154 -66.87605818 48.73971154 -69.84765625 48.5078125 C-75.88593848 48.69801917 -81.20247053 52.15528868 -86.4375 54.875 C-87.59459473 55.46635742 -88.75168945 56.05771484 -89.94384766 56.66699219 C-112.4897778 68.33182775 -131.22063292 82.91642321 -149 101 C-150 99 -150 99 -149.41430664 96.64013672 C-148.30871695 93.38062285 -147.20075749 90.12329723 -146.0625 86.875 C-145.4449585 85.10769531 -145.4449585 85.10769531 -144.81494141 83.3046875 C-137.37923942 62.47901314 -126.93385771 41.05988162 -106 31 C-98.17783139 27.35912927 -90.32615757 25.69317087 -81.875 24.125 C-69.84331604 21.7651508 -59.12925232 18.71803013 -47.9765625 13.6171875 C-41.50118818 10.71802527 -35.46950342 9.19419024 -28.51049805 8.09301758 C-19.9044595 6.72249412 -11.15861894 4.93031604 -3.1953125 1.3125 C-2.14085937 0.879375 -1.08640625 0.44625 0 0 Z " fill="#46BD66" transform="translate(483,380)"/>
<path d="M0 0 C10.75646426 5.97263062 18.88963468 14.0577049 26.5625 23.5625 C40.33195475 40.58173865 52.79785242 43.72753277 74 46 C73.23719929 50.93724857 71.47345336 53.36499067 68 57 C63.23643126 59.98526214 58.0712238 59.34157533 52.625 59.3125 C51.54025391 59.30686035 50.45550781 59.3012207 49.33789062 59.29541016 C34.05174879 59.0647018 20.92523656 54.61570072 6.9765625 48.72265625 C2.49463566 46.83163306 -1.01976337 45.36150812 -6 46 C-7.30309364 47.07940172 -7.30309364 47.07940172 -7.1328125 49.66796875 C-7.11394861 58.16615083 -6.72086658 66.52981763 -6 75 C-19.97220602 72.671299 -29.82281054 65.32787006 -40 56 C-40.58394531 55.53335938 -41.16789062 55.06671875 -41.76953125 54.5859375 C-47.75466297 46.87176773 -47.71735732 29.47453061 -47 20 C-45.75391419 12.91217247 -42.38321793 7.72908189 -37 3 C-34.43378362 1.33047313 -31.86047844 0.08003111 -29 -1 C-28.05769531 -1.35707031 -27.11539063 -1.71414063 -26.14453125 -2.08203125 C-17.65433451 -4.56053589 -8.01149641 -3.67761118 0 0 Z " fill="#EEA045" transform="translate(110,284)"/>
<path d="M0 0 C9.25548214 6.51376384 15.52597248 15.48533117 17.7578125 26.64453125 C18.73973742 36.86547702 17.00461846 46.45336378 11.0078125 54.95703125 C2.93713048 64.68634967 -6.73635376 70.34117594 -19.3203125 71.90234375 C-29.68217776 72.4614372 -38.80418811 68.08340974 -46.828125 61.8515625 C-53.93732164 55.35205424 -58.4033729 46.11135628 -59.48046875 36.5234375 C-59.85255424 24.91045363 -55.96709455 14.31341879 -48.2421875 5.64453125 C-34.81174817 -6.81697859 -15.95861684 -9.64745652 0 0 Z " fill="#155E59" transform="translate(123.2421875,190.35546875)"/>
<path d="M0 0 C1 1 1 1 1.12304783 2.82534122 C1.12166514 4.02966376 1.12166514 4.02966376 1.12025452 5.25831604 C1.12162918 6.1768335 1.12300385 7.09535095 1.12442017 8.04170227 C1.11902725 9.56515511 1.11902725 9.56515511 1.11352539 11.11938477 C1.11367142 12.18266998 1.11381744 13.2459552 1.1139679 14.34146118 C1.11326825 17.87479658 1.10547343 21.40808 1.09765625 24.94140625 C1.09579225 27.38378368 1.09436827 29.82616149 1.09336853 32.26853943 C1.08954189 38.71134464 1.07971037 45.15412748 1.06866455 51.59692383 C1.05845356 58.16552426 1.05387158 64.7341283 1.04882812 71.30273438 C1.03808823 84.20183249 1.02120104 97.10091506 1 110 C-0.60758561 109.68081468 -2.21504432 109.36099016 -3.82244873 109.04089355 C-4.71761578 108.86285942 -5.61278282 108.68482529 -6.53507614 108.50139618 C-9.06632763 107.98650814 -11.57356221 107.41313009 -14.078125 106.78125 C-14.9227832 106.57209961 -15.76744141 106.36294922 -16.63769531 106.14746094 C-17.49975586 105.93379883 -18.36181641 105.72013672 -19.25 105.5 C-26.67730352 103.68478922 -33.97880681 102.25131375 -41.578125 101.359375 C-44 101 -44 101 -45 100 C-45.17987301 97.65122244 -45.29509557 95.32975797 -45.36743164 92.97680664 C-45.39327835 92.24169861 -45.41912506 91.50659058 -45.445755 90.74920654 C-45.67198322 83.94026003 -45.80566895 77.12911716 -45.91112614 70.31733036 C-45.98326846 65.74136696 -46.08569104 61.17064743 -46.26196289 56.59741211 C-46.43169888 52.17364219 -46.52148421 47.75466217 -46.55697441 43.32784843 C-46.58387007 41.64681838 -46.63850791 39.96597988 -46.72224617 38.28682137 C-47.22971447 27.62767034 -47.22971447 27.62767034 -45 23 C-41.12460819 18.81821027 -36.0681555 16.33073515 -30.96596718 13.93924713 C-28.1793576 12.60793546 -25.55801146 11.02564002 -22.9140625 9.43359375 C-21.15298672 8.43146996 -19.39002763 7.43264696 -17.625 6.4375 C-16.71234375 5.91865234 -15.7996875 5.39980469 -14.859375 4.86523438 C-5.84789628 -0.24884665 -5.84789628 -0.24884665 0 0 Z " fill="#64C286" transform="translate(238,216)"/>
<path d="M0 0 C8.28085826 6.09193209 14.25797377 13.00948703 17 23 C18.07718957 35.56303645 17.02119575 45.88024102 9.375 56.3125 C5.27109625 61.13746347 0.67711675 64.25868425 -5 67 C-5.74507813 67.37382812 -6.49015625 67.74765625 -7.2578125 68.1328125 C-15.7032613 70.80359545 -27.82823612 70.34948742 -35.765625 66.44921875 C-44.84740897 60.55876097 -52.15227255 52.69447442 -55.375 42.1875 C-57.43733692 31.3765128 -56.20353088 21.72669695 -51 12 C-39.32311449 -4.83064948 -18.05654041 -10.73902127 0 0 Z " fill="#135E58" transform="translate(492,204)"/>
<path d="M0 0 C0.02348954 7.96460414 0.04109694 15.92919307 0.05181217 23.89382362 C0.05696288 27.59475581 0.06391238 31.29566378 0.07543945 34.99658203 C0.12711367 52.02267358 0.01181463 68.99649515 -1 86 C-6.45729067 87.40914787 -11.64465531 88.39653111 -17.25 88.9375 C-26.93423109 89.99375095 -35.75712418 92.05605415 -44.859375 95.60546875 C-46.5913916 96.27872192 -46.5913916 96.27872192 -48.35839844 96.96557617 C-49.23012695 97.30693604 -50.10185547 97.6482959 -51 98 C-51.16279952 89.68066515 -51.28687242 81.36200496 -51.3626852 73.04146671 C-51.39908796 69.17705245 -51.44839256 65.31373453 -51.52807617 61.44995117 C-51.60461127 57.71510119 -51.64608755 53.98129977 -51.6641407 50.24572563 C-51.67699102 48.82675114 -51.70208533 47.40782862 -51.7401104 45.9893055 C-51.95656236 37.57335487 -51.58636978 32.03621504 -45.71931458 25.71377563 C-45.15194077 25.14822968 -44.58456696 24.58268372 -44 24 C-43.28328125 23.06800781 -42.5665625 22.13601562 -41.828125 21.17578125 C-32.69325163 10.30372042 -14.52007115 0 0 0 Z " fill="#61BC69" transform="translate(389,226)"/>
<path d="M0 0 C0.7940625 -0.00386719 1.588125 -0.00773437 2.40625 -0.01171875 C10.35940947 0.00153652 10.35940947 0.00153652 14 1.125 C14.33 1.785 14.66 2.445 15 3.125 C15.99 3.455 16.98 3.785 18 4.125 C16.95960358 8.59870461 15.46686037 11.22511777 11.84619141 14.10571289 C8.40727688 16.00434661 4.83154477 15.59904516 1 15.5 C-11.2412383 15.67817881 -21.07788443 20.11653615 -29.98828125 28.73046875 C-35.79780327 35.64549205 -39.47587888 43.7694441 -42.94702148 52.02490234 C-46.47981513 60.40712361 -50.0950804 66.95205067 -57 73.125 C-57.97066406 74.01058594 -57.97066406 74.01058594 -58.9609375 74.9140625 C-66.35176465 81.03789071 -75.27712305 83.016399 -84.4375 85.0625 C-103.21999499 89.29269849 -117.58842401 98.29556701 -128 114.625 C-129.35063488 116.78191883 -130.67982906 118.94916271 -132 121.125 C-133.24546405 118.63407189 -132.7767578 117.71419267 -132 115.125 C-132.928125 115.434375 -132.928125 115.434375 -133.875 115.75 C-134.57625 115.87375 -135.2775 115.9975 -136 116.125 C-136.66 115.465 -137.32 114.805 -138 114.125 C-140.54713404 114.13422702 -140.54713404 114.13422702 -143 115.125 C-144.36020151 117.09258273 -144.36020151 117.09258273 -145 119.125 C-145.66 119.125 -146.32 119.125 -147 119.125 C-141.55224607 100.43892174 -125.76064965 86.13589463 -109.50390625 76.671875 C-102.42670718 73.09364315 -94.72737 71.29912987 -87.05493164 69.44262695 C-75.95719944 66.64775201 -68.32998229 62.36000676 -62.38867188 52.43261719 C-60.63532712 49.30890043 -58.93877844 46.15905058 -57.25 43 C-46.51281706 23.43814182 -33.957856 7.02530315 -11.58203125 0.41015625 C-7.71847212 -0.01653031 -3.88396104 -0.01891539 0 0 Z " fill="#126C61" transform="translate(472,282.875)"/>
<path d="M0 0 C0.66 0.33 1.32 0.66 2 1 C4.55157655 1.0716735 7.07472971 1.09308442 9.625 1.0625 C10.33140625 1.05798828 11.0378125 1.05347656 11.765625 1.04882812 C13.51045275 1.03703875 15.255237 1.01910324 17 1 C17.18935113 44.98772326 17.18935113 44.98772326 16.625 62.6875 C16.59414307 63.82993164 16.56328613 64.97236328 16.53149414 66.14941406 C16.4927417 67.17647461 16.45398926 68.20353516 16.4140625 69.26171875 C16.3826416 70.13787842 16.3512207 71.01403809 16.31884766 71.91674805 C16 74 16 74 14 76 C13.01 76.495 13.01 76.495 12 77 C11.62243192 78.32148827 11.2981424 79.65835921 11 81 C10.3530635 82.6744239 9.69040574 84.34302621 9 86 C9.61875 85.814375 10.2375 85.62875 10.875 85.4375 C13 85 13 85 15 86 C14.505 87.485 14.505 87.485 14 89 C13.38125 88.79375 12.7625 88.5875 12.125 88.375 C11.073125 88.189375 11.073125 88.189375 10 88 C9.34 88.66 8.68 89.32 8 90 C7.35933594 89.38511719 6.71867187 88.77023437 6.05859375 88.13671875 C1.20376867 83.60024286 -2.75543539 80.41018283 -9 78 C-10.66248799 76.96375326 -12.30639564 75.89747566 -13.9375 74.8125 C-18.60857712 71.76755375 -23.38950664 69.16630164 -28.375 66.6875 C-29.05296631 66.35016846 -29.73093262 66.01283691 -30.42944336 65.6652832 C-33.90203854 63.9614941 -37.38421435 62.37511539 -41 61 C-38.05470757 56.69534183 -35.91736035 55.49658793 -31 54 C-30.34 53.01 -29.68 52.02 -29 51 C-25.2942454 50.50503102 -22.98641958 51.22057315 -19.78515625 53.046875 C-19.01623047 53.48 -18.24730469 53.913125 -17.45507812 54.359375 C-16.66552734 54.81828125 -15.87597656 55.2771875 -15.0625 55.75 C-13.88397461 56.41515625 -13.88397461 56.41515625 -12.68164062 57.09375 C-8.31330112 59.57949968 -4.19811729 62.20125514 0 65 C0 43.55 0 22.1 0 0 Z " fill="#107666" transform="translate(280,282)"/>
<path d="M0 0 C1.16666667 0.875 2.33333333 1.75 3.5 2.625 C4.60214844 3.44677734 4.60214844 3.44677734 5.7265625 4.28515625 C7.15085583 5.35949435 8.56431143 6.44852642 9.9609375 7.55859375 C15.1978611 11.67331944 21.46697847 16.31764768 28.19116211 17.32983398 C30.93292766 17.85560226 32.6999675 18.39524366 35 20 C37.07889037 24.37584063 37.82579311 28.94294601 38.6875 33.6875 C39.23457555 36.34115978 39.81000524 38.98851247 40.3828125 41.63671875 C40.78741699 43.54976807 40.78741699 43.54976807 41.20019531 45.50146484 C42.75692713 52.31097857 45.2172022 58.6018153 48 65 C48.67095703 66.57201172 48.67095703 66.57201172 49.35546875 68.17578125 C50.8297026 71.49177504 52.39293128 74.74622635 54 78 C54.34514648 78.70495605 54.69029297 79.40991211 55.04589844 80.13623047 C61.01701142 92.2353203 67.94136528 103.18592145 76 114 C73 114 73 114 71.01953125 112.27734375 C70.29121094 111.50519531 69.56289062 110.73304688 68.8125 109.9375 C66.03237125 107.05456906 63.26796409 104.30846076 60.1875 101.75 C31.49623351 76.9945136 9.76822835 38.22404563 0 2 C0 1.34 0 0.68 0 0 Z " fill="#62BD69" transform="translate(69,339)"/>
<path d="M0 0 C6.15923068 3.53585465 12.2533954 7.90968476 14.375 14.9375 C15.16841274 22.95096867 14.94682002 30.35966349 9.86328125 36.875 C4.03723039 43.15927958 -1.04965077 45.08247469 -9.5 45.5 C-16.4226175 45.35271027 -20.58986103 43.62807096 -25.625 38.9375 C-31.35554496 32.91308094 -32.08871559 27.24864761 -31.93359375 19.1640625 C-31.33117384 12.86534291 -28.91113785 8.87148991 -24.3125 4.625 C-16.74557493 -1.25860487 -9.14652158 -2.68087702 0 0 Z " fill="#EEA146" transform="translate(111.625,201.0625)"/>
<path d="M0 0 C5.60935611 0.65491499 10.2466967 2.08544538 15.37597656 4.40551758 C31.08847045 11.18406862 44.60592399 13.27348278 61.60644531 13.52270508 C62.78335938 13.55364258 63.96027344 13.58458008 65.17285156 13.61645508 C66.77918457 13.64618408 66.77918457 13.64618408 68.41796875 13.67651367 C71.12597656 14.09301758 71.12597656 14.09301758 72.97070312 15.40795898 C74.94710233 18.29069511 74.53953889 20.72543863 74.12597656 24.09301758 C71.90734627 27.00018831 70.60652728 27.93283401 67.12597656 29.09301758 C48.6667107 30.37466551 30.83702566 29.60046075 14.12597656 21.09301758 C14.77120037 30.14036658 14.77120037 30.14036658 15.75097656 39.15551758 C16.06610316 42.4643469 16.19462752 44.09183614 15.12597656 47.09301758 C13.06347656 48.34301758 13.06347656 48.34301758 11.12597656 49.09301758 C10.79597656 48.43301758 10.46597656 47.77301758 10.12597656 47.09301758 C7.62240464 48.34480354 6.06164277 50.09282916 4.12597656 52.09301758 C3.46597656 50.77301758 2.80597656 49.45301758 2.12597656 48.09301758 C1.79597656 48.09301758 1.46597656 48.09301758 1.12597656 48.09301758 C0.47545286 44.44800533 -0.1685725 40.80187257 -0.81152344 37.15551758 C-0.99392578 36.13393555 -1.17632812 35.11235352 -1.36425781 34.05981445 C-2.8552992 25.57443349 -4.01425997 17.2858275 -4.06152344 8.65551758 C-4.07570313 7.46055664 -4.08988281 6.2655957 -4.10449219 5.03442383 C-3.85364075 1.83287916 -3.48807934 0.17313161 0 0 Z " fill="#196F60" transform="translate(105.8740234375,328.906982421875)"/>
<path d="M0 0 C4.41033442 2.99753238 7.61310022 6.49164442 9.3046875 11.56640625 C9.94475729 19.2367508 10.20112016 26.2812193 5.3046875 32.56640625 C0.29932844 37.86829132 -4.2109235 40.60140289 -11.5703125 40.87890625 C-18.38616808 40.72699268 -23.86452029 38.52432457 -28.6953125 33.56640625 C-32.94683282 27.18326968 -35.01547261 21.22333491 -33.6953125 13.56640625 C-31.49596401 6.01212229 -25.88194701 1.03544711 -19.2578125 -2.87109375 C-11.95620475 -4.4738857 -6.58302555 -3.59913079 0 0 Z " fill="#54CADB" transform="translate(484.6953125,217.43359375)"/>
<path d="M0 0 C0.33 0 0.66 0 1 0 C1 36.3 1 72.6 1 110 C0.34 110 -0.32 110 -1 110 C-1 110.99 -1 111.98 -1 113 C-1.639375 113.2475 -2.27875 113.495 -2.9375 113.75 C-5.18741541 114.81562433 -5.18741541 114.81562433 -5.75 117.125 C-5.8325 117.74375 -5.915 118.3625 -6 119 C-4.02 119.99 -2.04 120.98 0 122 C-0.495 123.485 -0.495 123.485 -1 125 C-1.54785156 124.82984375 -2.09570312 124.6596875 -2.66015625 124.484375 C-5.43444186 123.6363007 -8.21631087 122.81668782 -11 122 C-12.04285156 121.68675781 -13.08570313 121.37351562 -14.16015625 121.05078125 C-30.2997235 116.44727447 -47.21767732 113.59092686 -64 113 C-64 112.67 -64 112.34 -64 112 C-60.535 111.505 -60.535 111.505 -57 111 C-57.66 110.67 -58.32 110.34 -59 110 C-58.79375 109.443125 -58.5875 108.88625 -58.375 108.3125 C-57.86578406 105.17233506 -58.35592678 103.71629488 -60 101 C-63.02982306 99.62810173 -63.02982306 99.62810173 -66 99 C-66 98.67 -66 98.34 -66 98 C-64.02 98 -62.04 98 -60 98 C-60.00523682 96.97342285 -60.01047363 95.9468457 -60.01586914 94.88916016 C-60.03432186 90.98633742 -60.04557497 87.0835183 -60.05493164 83.18066406 C-60.0598818 81.50910794 -60.06664362 79.83755594 -60.07543945 78.16601562 C-60.13565888 66.40551632 -59.78251018 54.73500615 -59 43 C-58.67 43 -58.34 43 -58 43 C-57.00137301 50.36487404 -56.89668969 57.57313685 -57 65 C-56.21625 64.814375 -55.4325 64.62875 -54.625 64.4375 C-52 64 -52 64 -50 65 C-49.67 65.99 -49.34 66.98 -49 68 C-48.0145424 58.08980313 -47.69417745 48.1986083 -47.4375 38.25 C-47.39418522 36.66665829 -47.35056744 35.08332485 -47.30664062 33.5 C-47.20094127 29.66675271 -47.0993163 25.83341776 -47 22 C-46.67 22 -46.34 22 -46 22 C-45.67 47.41 -45.34 72.82 -45 99 C-39.06 99.99 -33.12 100.98 -27 102 C-22.6576882 102.98789437 -18.36534353 103.99907513 -14.0625 105.125 C-13.02416016 105.38925781 -11.98582031 105.65351563 -10.91601562 105.92578125 C-7.23957938 106.86698715 -3.60109504 107.79963499 0 109 C0 73.03 0 37.06 0 0 Z " fill="#106C61" transform="translate(239,217)"/>
<path d="M0 0 C5.61 0 11.22 0 17 0 C17.495 36.63 17.495 36.63 18 74 C20.64 71.69 23.28 69.38 26 67 C30 69 30 69 31.25 71.625 C31.4975 72.40875 31.745 73.1925 32 74 C33.98 73.505 33.98 73.505 36 73 C36.33 73.99 36.66 74.98 37 76 C36.44570313 76.61488281 35.89140625 77.22976563 35.3203125 77.86328125 C34.59585938 78.67152344 33.87140625 79.47976563 33.125 80.3125 C32.40570313 81.11300781 31.68640625 81.91351563 30.9453125 82.73828125 C27.98048736 85.8275306 27.98048736 85.8275306 27.109375 89.7734375 C28.39888631 92.99721578 30.31942825 95.76019299 32.25 98.625 C40.19488029 110.71950614 40.19488029 110.71950614 42 116 C41.505 117.485 41.505 117.485 41 119 C40.73896484 118.48203857 40.47792969 117.96407715 40.20898438 117.43041992 C32.82565852 100.03130933 32.82565852 100.03130933 20 88 C20.2475 88.5775 20.495 89.155 20.75 89.75 C20.8325 90.4925 20.915 91.235 21 92 C19.1875 94.25 19.1875 94.25 17 96 C16.34 96 15.68 96 15 96 C15.66 97.32 16.32 98.64 17 100 C18.485 99.505 18.485 99.505 20 99 C19.773125 99.5775 19.54625 100.155 19.3125 100.75 C18.71884554 103.11481756 18.71884554 103.11481756 20.5 105.0625 C20.995 105.701875 21.49 106.34125 22 107 C21.67 107.99 21.34 108.98 21 110 C20.59910156 109.39414062 20.19820313 108.78828125 19.78515625 108.1640625 C12.73262403 97.76917375 4.48794888 89.20044016 -5 81 C-1.03869629 81 -0.17085599 82.34877125 2.6875 85 C3.49574219 85.7425 4.30398438 86.485 5.13671875 87.25 C5.75160156 87.8275 6.36648438 88.405 7 89 C7.99 88.01 7.99 88.01 9 87 C11.125 87.375 11.125 87.375 13 88 C13.33 87.34 13.66 86.68 14 86 C12.02 86 10.04 86 8 86 C8.33333333 84.33333333 8.66666667 82.66666667 9 81 C9.103125 80.113125 9.20625 79.22625 9.3125 78.3125 C9.539375 77.549375 9.76625 76.78625 10 76 C11.98 75.01 11.98 75.01 14 74 C14.66 49.91 15.32 25.82 16 1 C11.05 1 6.1 1 1 1 C1 21.79 1 42.58 1 64 C0.67 64 0.34 64 0 64 C0 42.88 0 21.76 0 0 Z M30 67 C30.99 67.495 30.99 67.495 32 68 C31.67 68.66 31.34 69.32 31 70 C30.67 69.01 30.34 68.02 30 67 Z " fill="#0B6660" transform="translate(281,282)"/>
<path d="M0 0 C0.33 0 0.66 0 1 0 C1 36.3 1 72.6 1 110 C0.34 110 -0.32 110 -1 110 C-1 110.99 -1 111.98 -1 113 C-1.9590625 113.37125 -1.9590625 113.37125 -2.9375 113.75 C-5.18741541 114.81562433 -5.18741541 114.81562433 -5.75 117.125 C-5.8325 117.74375 -5.915 118.3625 -6 119 C-4.02 119.99 -2.04 120.98 0 122 C-0.33 122.99 -0.66 123.98 -1 125 C-1.94359375 124.70996094 -1.94359375 124.70996094 -2.90625 124.4140625 C-8.24216385 122.7907875 -13.57759268 121.30539435 -19 120 C-19 119.34 -19 118.68 -19 118 C-23.29 117.01 -27.58 116.02 -32 115 C-28 112 -28 112 -25.25 112.3125 C-24.5075 112.539375 -23.765 112.76625 -23 113 C-23.04125 112.21625 -23.0825 111.4325 -23.125 110.625 C-23 108 -23 108 -21 106 C-18.75 105.69921875 -18.75 105.69921875 -16 105.6875 C-15.113125 105.67074219 -14.22625 105.65398437 -13.3125 105.63671875 C-10 106 -10 106 0 109 C0 73.03 0 37.06 0 0 Z " fill="#177B69" transform="translate(239,217)"/>
<path d="M0 0 C0.99 0.33 1.98 0.66 3 1 C2.67 67.33 2.34 133.66 2 202 C1.34 202 0.68 202 0 202 C0 135.34 0 68.68 0 0 Z " fill="#ACDD7A" transform="translate(254,131)"/>
<path d="M0 0 C4.62 0 9.24 0 14 0 C14 8.25 14 16.5 14 25 C9.38 25 4.76 25 0 25 C0 16.75 0 8.5 0 0 Z " fill="#0A7867" transform="translate(269,182)"/>
<path d="M0 0 C4.62 0 9.24 0 14 0 C14 7.92 14 15.84 14 24 C9.38 24 4.76 24 0 24 C0 16.08 0 8.16 0 0 Z " fill="#0A7966" transform="translate(294,182)"/>
<path d="M0 0 C4.62 0 9.24 0 14 0 C14 7.59 14 15.18 14 23 C9.38 23 4.76 23 0 23 C0 15.41 0 7.82 0 0 Z " fill="#0A7766" transform="translate(270,226)"/>
<path d="M0 0 C4.29 0 8.58 0 13 0 C13 7.59 13 15.18 13 23 C8.71 23 4.42 23 0 23 C0 15.41 0 7.82 0 0 Z " fill="#096F64" transform="translate(295,226)"/>
<path d="M0 0 C4.62 0 9.24 0 14 0 C14 6.93 14 13.86 14 21 C9.38 21 4.76 21 0 21 C0 14.07 0 7.14 0 0 Z " fill="#087063" transform="translate(208,256)"/>
<path d="M0 0 C-3.38317487 0.97591583 -5.5657338 0.85856655 -9 0 C-9.77772405 2.33317216 -10.42415568 4.61435923 -11 7 C-12.98 7 -14.96 7 -17 7 C-17 7.66 -17 8.32 -17 9 C-11.06 10.485 -11.06 10.485 -5 12 C-9.45173636 13.11293409 -12.72948779 12.59135922 -17.125 11.75 C-17.85332031 11.62753906 -18.58164063 11.50507813 -19.33203125 11.37890625 C-21.24343625 11.02206354 -23.12609499 10.51892754 -25 10 C-25.66 9.01 -26.32 8.02 -27 7 C-26.690625 6.236875 -26.38125 5.47375 -26.0625 4.6875 C-24.75681537 1.38488594 -25.20792407 -0.59407352 -26 -4 C-17.90947829 -6.68405934 -7.76707523 -2.57756921 0 0 Z " fill="#0A7166" transform="translate(227,323)"/>
<path d="M0 0 C4.27676167 0.69259298 7.51696752 2.77251904 11.20703125 4.96875 C11.94759766 5.39800781 12.68816406 5.82726562 13.45117188 6.26953125 C15.27123161 7.32634013 17.08366044 8.39627187 18.89453125 9.46875 C15.89453125 10.46875 15.89453125 10.46875 14.0703125 9.69140625 C12.34505208 8.6171875 10.61979167 7.54296875 8.89453125 6.46875 C8.56453125 7.45875 8.23453125 8.44875 7.89453125 9.46875 C7.56453125 8.80875 7.23453125 8.14875 6.89453125 7.46875 C4.72581235 9.65775586 4.72581235 9.65775586 2.89453125 12.46875 C3.02602951 15.21999253 3.02602951 15.21999253 3.89453125 17.46875 C-0.32322607 16.11349464 -4.39968197 14.56674886 -8.48046875 12.84375 C-9.54007813 12.39773438 -10.5996875 11.95171875 -11.69140625 11.4921875 C-12.48804688 11.15445312 -13.2846875 10.81671875 -14.10546875 10.46875 C-10.98097068 6.26217467 -9.10345461 4.98987613 -4.10546875 3.46875 C-2.10546875 0.46875 -2.10546875 0.46875 0 0 Z " fill="#0E6D64" transform="translate(253.10546875,332.53125)"/>
<path d="M0 0 C4.62 0 9.24 0 14 0 C14 7.92 14 15.84 14 24 C9.38 24 4.76 24 0 24 C0 16.08 0 8.16 0 0 Z M2 2 C1.505 12.395 1.505 12.395 1 23 C4.63 23 8.26 23 12 23 C12 16.07 12 9.14 12 2 C8.7 2 5.4 2 2 2 Z " fill="#066863" transform="translate(294,182)"/>
<path d="M0 0 C4.62 0 9.24 0 14 0 C14 8.25 14 16.5 14 25 C9.38 25 4.76 25 0 25 C0 16.75 0 8.5 0 0 Z M2 2 C2 8.93 2 15.86 2 23 C5.63 23 9.26 23 13 23 C13 16.07 13 9.14 13 2 C9.37 2 5.74 2 2 2 Z " fill="#116C64" transform="translate(269,182)"/>
<path d="M0 0 C8.44646925 6.15034169 8.44646925 6.15034169 12 10 C11.01 11.485 11.01 11.485 10 13 C9.34 13 8.68 13 8 13 C8 13.66 8 14.32 8 15 C7.34 15 6.68 15 6 15 C6.27787354 15.59014893 6.55574707 16.18029785 6.84204102 16.78833008 C8.09236094 19.45842913 9.32755531 22.13525735 10.5625 24.8125 C11.00013672 25.74126953 11.43777344 26.67003906 11.88867188 27.62695312 C12.29794922 28.51962891 12.70722656 29.41230469 13.12890625 30.33203125 C13.51119385 31.15421143 13.89348145 31.9763916 14.28735352 32.82348633 C15 35 15 35 14 38 C0 10.29787234 0 10.29787234 0 0 Z " fill="#6CC56C" transform="translate(69,339)"/>
<path d="M0 0 C4.62 0 9.24 0 14 0 C14 7.59 14 15.18 14 23 C9.38 23 4.76 23 0 23 C0 15.41 0 7.82 0 0 Z M1 1 C1 7.6 1 14.2 1 21 C4.63 21 8.26 21 12 21 C12 14.4 12 7.8 12 1 C8.37 1 4.74 1 1 1 Z " fill="#0B6563" transform="translate(270,226)"/>
<path d="M0 0 C3.78597164 6.85666575 3.16895044 15.10485763 3.125 22.75 C3.12089111 23.6174585 3.11678223 24.48491699 3.11254883 25.37866211 C2.94350304 44.98252031 2.94350304 44.98252031 0.46801758 47.65209961 C-0.25865112 48.3193103 -0.25865112 48.3193103 -1 49 C-0.9285376 48.27981689 -0.8570752 47.55963379 -0.78344727 46.81762695 C0.09650374 36.92759245 0.11487741 27.10857264 0.0625 17.1875 C0.05747056 15.51237114 0.05291023 13.83724081 0.04882812 12.16210938 C0.03794708 8.10803561 0.02076371 4.05403469 0 0 Z " fill="#066764" transform="translate(319,433)"/>
<path d="M0 0 C2 3.75 2 3.75 2 6 C-2.49827668 6.05001077 -6.99639945 6.08600376 -11.49487305 6.10986328 C-13.02029241 6.11982599 -14.54569316 6.13340109 -16.07104492 6.15087891 C-24.93851338 6.2498267 -33.31535956 6.08732586 -42 4 C-42 3.67 -42 3.34 -42 3 C-40.94087402 3.03029297 -39.88174805 3.06058594 -38.79052734 3.09179688 C-34.84328576 3.20446995 -30.89601316 3.31602306 -26.94873047 3.42724609 C-25.24364374 3.47544528 -23.53856545 3.52394404 -21.83349609 3.57275391 C-19.37599842 3.6430501 -16.91847193 3.71225208 -14.4609375 3.78125 C-13.70444916 3.80312378 -12.94796082 3.82499756 -12.16854858 3.84753418 C-8.11092198 3.96031694 -4.05916789 4.02245736 0 4 C0 2.68 0 1.36 0 0 Z " fill="#A8DC75" transform="translate(302,499)"/>
<path d="M0 0 C4.49959413 1.43393659 7.506103 3.9327594 10.875 7.125 C11.39803711 7.61202393 11.92107422 8.09904785 12.45996094 8.60083008 C16.58940566 12.49468959 20.41586274 16.59554964 24 21 C23.67 21.66 23.34 22.32 23 23 C19.57572956 19.66454349 16.26179767 16.42975727 13.4375 12.5625 C11.20276464 9.66373393 11.20276464 9.66373393 7.6875 9.625 C6.3571875 9.810625 6.3571875 9.810625 5 10 C4.9175 9.236875 4.835 8.47375 4.75 7.6875 C3.84504809 4.44475565 2.71226652 3.83734184 0 2 C0 1.34 0 0.68 0 0 Z " fill="#175A4D" transform="translate(123,276)"/>
<path d="M0 0 C0.66 0 1.32 0 2 0 C3.46067034 2.24555337 4.80563288 4.48553498 6.125 6.8125 C10.03582357 13.54001429 14.27549285 19.80793476 19 26 C16 26 16 26 13.95703125 24.35546875 C13.24933594 23.64003906 12.54164063 22.92460937 11.8125 22.1875 C11.09707031 21.47980469 10.38164062 20.77210938 9.64453125 20.04296875 C8 18 8 18 8 15 C6.72020296 12.57181366 5.40650175 10.22708907 4 7.875 C0 1.10472973 0 1.10472973 0 0 Z " fill="#70C669" transform="translate(126,427)"/>
<path d="M0 0 C0.33 0 0.66 0 1 0 C1 1.65 1 3.3 1 5 C-0.32 5.33 -1.64 5.66 -3 6 C-3 6.763125 -3 7.52625 -3 8.3125 C-3 10.20833333 -3 12.10416667 -3 14 C-3.99 14 -4.98 14 -6 14 C-6.66 15.32 -7.32 16.64 -8 18 C-8.66 18 -9.32 18 -10 18 C-8.6948802 13.5730861 -6.9640877 10.04331547 -4.4375 6.1875 C-3.81746094 5.23230469 -3.19742187 4.27710938 -2.55859375 3.29296875 C-1 1 -1 1 0 0 Z " fill="#0F685C" transform="translate(335,384)"/>
<path d="M0 0 C0.33 0 0.66 0 1 0 C1.67842194 10.68514555 2.15498126 21.28907291 2 32 C0.35 31.67 -1.3 31.34 -3 31 C-2.01 30.67 -1.02 30.34 0 30 C0 20.1 0 10.2 0 0 Z " fill="#E3EDEA" transform="translate(177,283)"/>
<path d="M0 0 C1.59587955 3.1917591 0.08182648 5.61181865 -0.9375 8.9375 C-2.50476291 13.88849321 -2.50476291 13.88849321 -3 19 C-5.5 21.1875 -5.5 21.1875 -8 23 C-2.85714286 2.85714286 -2.85714286 2.85714286 0 0 Z " fill="#52C868" transform="translate(341,458)"/>
<path d="M0 0 C0.66 0.33 1.32 0.66 2 1 C1.2884375 1.61875 1.2884375 1.61875 0.5625 2.25 C-1.12487228 3.85858858 -1.12487228 3.85858858 -1.4375 5.875 C-2.64538343 10.43811517 -6.21227886 13.42976066 -10 16 C-10.33 15.34 -10.66 14.68 -11 14 C-9.73253547 12.2267539 -8.46089765 10.45649025 -7.1875 8.6875 C-6.47980469 7.70136719 -5.77210938 6.71523438 -5.04296875 5.69921875 C-3.45369163 3.59942813 -1.92542371 1.77965031 0 0 Z " fill="#175E54" transform="translate(434,298)"/>
<path d="M0 0 C4.455 0.99 4.455 0.99 9 2 C9 2.66 9 3.32 9 4 C11.31 4 13.62 4 16 4 C16 4.66 16 5.32 16 6 C17.32 6.66 18.64 7.32 20 8 C13.26137773 6.56390017 6.63370443 4.85991713 0 3 C0 2.01 0 1.02 0 0 Z " fill="#3CA161" transform="translate(337,84)"/>
<path d="M0 0 C0.33 0 0.66 0 1 0 C0.67 5.61 0.34 11.22 0 17 C0.66 17 1.32 17 2 17 C2.66 15.68 3.32 14.36 4 13 C4 16.52032428 3.29648649 17.4385343 1 20 C0.34 20 -0.32 20 -1 20 C-1.99939172 12.77466796 -1.96290189 7.04335384 0 0 Z " fill="#066959" transform="translate(333,416)"/>
<path d="M0 0 C-0.95098266 1.98270912 -1.91100703 3.96108379 -2.875 5.9375 C-3.40867187 7.03964844 -3.94234375 8.14179688 -4.4921875 9.27734375 C-6 12 -6 12 -8 13 C-6.125 7.25 -6.125 7.25 -5 5 C-6.32 4.67 -7.64 4.34 -9 4 C-8.67 3.01 -8.34 2.02 -8 1 C-2.59770115 -1.29885057 -2.59770115 -1.29885057 0 0 Z " fill="#4DC568" transform="translate(485,381)"/>
<path d="M0 0 C-2.28827539 2.28827539 -3.27122511 2.42255351 -6.375 3 C-8.8444441 3.46250458 -10.81337097 3.90420183 -13.0546875 5.0546875 C-15.99861018 6.4852684 -18.78431155 6.12368033 -22 6 C-19.32792565 3.32792565 -16.87468333 2.90734652 -13.25 1.875 C-11.43242187 1.34519531 -11.43242187 1.34519531 -9.578125 0.8046875 C-6.23836286 0.05360562 -3.40548132 -0.15669393 0 0 Z " fill="#299653" transform="translate(240,69)"/>
<path d="M0 0 C0.33 0 0.66 0 1 0 C1.11632513 3.41637953 1.18728897 6.83224897 1.25 10.25 C1.28351562 11.21808594 1.31703125 12.18617188 1.3515625 13.18359375 C1.45112665 20.4019949 1.45112665 20.4019949 -1.015625 23.671875 C-1.99789062 24.32929688 -1.99789062 24.32929688 -3 25 C-3.66 24.67 -4.32 24.34 -5 24 C-4 21 -4 21 -3 20 C-2.01 19.67 -1.02 19.34 0 19 C0 12.73 0 6.46 0 0 Z " fill="#0C6161" transform="translate(62,303)"/>
<path d="M0 0 C8.23314279 -0.4333233 13.68697272 1.45218814 20 7 C19.67 7.66 19.34 8.32 19 9 C18.278125 8.34 17.55625 7.68 16.8125 7 C13.78402067 4.8464147 12.60296594 4.58823246 9 5 C9 4.01 9 3.02 9 2 C6.03 1.67 3.06 1.34 0 1 C0 0.67 0 0.34 0 0 Z " fill="#F2AC43" transform="translate(100,200)"/>
<path d="M0 0 C0.66 0 1.32 0 2 0 C1.59773543 4.41459584 -1.40387125 6.53697056 -4.5625 9.25 C-5.08263672 9.70890625 -5.60277344 10.1678125 -6.13867188 10.640625 C-7.41895555 11.7682143 -8.70858798 12.88517315 -10 14 C-10 11 -10 11 -8.3203125 9.0625 C-7.59585938 8.381875 -6.87140625 7.70125 -6.125 7 C-3.69915419 4.704576 -1.86499904 2.79749856 0 0 Z " fill="#2B9853" transform="translate(128,128)"/>
<path d="M0 0 C3.89006773 1.38780795 6.96558708 3.2152227 10.3125 5.625 C11.19550781 6.25664062 12.07851562 6.88828125 12.98828125 7.5390625 C13.65214844 8.02117187 14.31601562 8.50328125 15 9 C12 9 12 9 9 8 C8.01 8 7.02 8 6 8 C6 7.01 6 6.02 6 5 C4.03852126 3.61061923 2.03833424 2.2739589 0 1 C0 0.67 0 0.34 0 0 Z " fill="#0B6763" transform="translate(243,403)"/>
<path d="M0 0 C0.99 1.485 0.99 1.485 2 3 C2.99 3 3.98 3 5 3 C4.67 4.98 4.34 6.96 4 9 C3.34 9 2.68 9 2 9 C1.67 9.66 1.34 10.32 1 11 C-0.20272819 8.59454362 -0.10071472 7.05003047 -0.0625 4.375 C-0.05347656 3.55773437 -0.04445312 2.74046875 -0.03515625 1.8984375 C-0.02355469 1.27195312 -0.01195312 0.64546875 0 0 Z " fill="#115D50" transform="translate(50,320)"/>
<path d="M0 0 C0.99 0 1.98 0 3 0 C3 4.95 3 9.9 3 15 C2.01 14.67 1.02 14.34 0 14 C0 9.38 0 4.76 0 0 Z " fill="#226A63" transform="translate(400,298)"/>
<path d="M0 0 C1.98 0 3.96 0 6 0 C4.87548273 2.9719385 3.77706209 5.33440687 2 8 C1.34 8 0.68 8 0 8 C0 5.36 0 2.72 0 0 Z " fill="#39CFC7" transform="translate(333,425)"/>
<path d="M0 0 C0.33 0 0.66 0 1 0 C1.36024218 6.36427851 1.36024218 6.36427851 -0.0625 8.875 C-2.92113133 10.53485045 -5.74739303 10.69315029 -9 11 C-9 10.01 -9 9.02 -9 8 C-7.02 8 -5.04 8 -3 8 C-1.7095826 5.41916521 -0.89351752 2.74012041 0 0 Z " fill="#4FA96F" transform="translate(472,169)"/>
<path d="M0 0 C-0.33 0.99 -0.66 1.98 -1 3 C-1.66 3 -2.32 3 -3 3 C-3 3.66 -3 4.32 -3 5 C-3.5775 4.814375 -4.155 4.62875 -4.75 4.4375 C-7.20692525 3.95976454 -8.64397534 4.24270636 -11 5 C-8.10998474 1.78887193 -4.47884754 -2.23942377 0 0 Z " fill="#50C567" transform="translate(382,411)"/>
<path d="M0 0 C0.99 0.99 1.98 1.98 3 3 C1.68 3 0.36 3 -1 3 C-0.67 5.97 -0.34 8.94 0 12 C-1.70884005 10.37660195 -3.37446717 8.70680947 -5 7 C-5 5 -5 5 -2.5 2.375 C-1.675 1.59125 -0.85 0.8075 0 0 Z " fill="#0D6758" transform="translate(93,409)"/>
<path d="M0 0 C2.97 0.495 2.97 0.495 6 1 C7.1577506 4.47325181 7.06866652 7.36067448 7 11 C5.14223235 7.86501708 4.79859524 5.62528568 5 2 C4.54625 2.495 4.0925 2.99 3.625 3.5 C2 5 2 5 0 5 C0 3.35 0 1.7 0 0 Z " fill="#67C96F" transform="translate(98,358)"/>
<path d="M0 0 C0 4.41102954 -2.19272722 6.16966229 -5.1875 9.25 C-5.785625 9.8275 -6.38375 10.405 -7 11 C-7.99 10.67 -8.98 10.34 -10 10 C-6.66666667 6.66666667 -3.33333333 3.33333333 0 0 Z " fill="#0B584D" transform="translate(407,340)"/>
<path d="M0 0 C0.99 0.33 1.98 0.66 3 1 C2.01 1.495 2.01 1.495 1 2 C3.31 2.66 5.62 3.32 8 4 C8 4.33 8 4.66 8 5 C2.39 5 -3.22 5 -9 5 C-9 4.67 -9 4.34 -9 4 C-7.88625 3.896875 -6.7725 3.79375 -5.625 3.6875 C-4.42875 3.460625 -3.2325 3.23375 -2 3 C-1.34 2.01 -0.68 1.02 0 0 Z " fill="#1B6C5F" transform="translate(184,325)"/>
<path d="M0 0 C1.43088528 2.86177057 0.59991697 4.93375773 0 8 C-0.86625 7.4740625 -0.86625 7.4740625 -1.75 6.9375 C-4.35801776 5.85082593 -5.39417629 6.06934867 -8 7 C-5.42215154 4.35247996 -3.08351902 2.05567935 0 0 Z " fill="#0F5A50" transform="translate(444,291)"/>
<path d="M0 0 C0.33 0.66 0.66 1.32 1 2 C-0.76896102 2.36340286 -2.54026626 2.71540883 -4.3125 3.0625 C-5.29863281 3.25972656 -6.28476562 3.45695313 -7.30078125 3.66015625 C-10 4 -10 4 -13 3 C-8.37802694 0.78145293 -5.23175837 -0.38281159 0 0 Z " fill="#13554C" transform="translate(380,214)"/>
<path d="M0 0 C0 3.60573896 -0.81707462 4.41336566 -3 7.1875 C-3.556875 7.90292969 -4.11375 8.61835938 -4.6875 9.35546875 C-5.120625 9.89816406 -5.55375 10.44085938 -6 11 C-6 8 -6 8 -5 6 C-5.66 6 -6.32 6 -7 6 C-7 5.34 -7 4.68 -7 4 C-5.68 4 -4.36 4 -3 4 C-1.22590192 2.07977297 -1.22590192 2.07977297 0 0 Z " fill="#50C766" transform="translate(467,409)"/>
<path d="M0 0 C0.33 0.66 0.66 1.32 1 2 C4.465 1.505 4.465 1.505 8 1 C5.48300155 3.51699845 3.42445854 4.10964078 0 5 C-2.375 4.625 -2.375 4.625 -4 4 C-2.68 2.68 -1.36 1.36 0 0 Z " fill="#51CA66" transform="translate(343,494)"/>
<path d="M0 0 C0.99 0.33 1.98 0.66 3 1 C2.67 1.33 2.34 1.66 2 2 C2.33 2.763125 2.66 3.52625 3 4.3125 C4 7 4 7 4 10 C2.99406757 8.8803014 1.9954151 7.7540588 1 6.625 C0.443125 5.99851562 -0.11375 5.37203125 -0.6875 4.7265625 C-2 3 -2 3 -2 1 C-1.34 0.67 -0.68 0.34 0 0 Z " fill="#105F4F" transform="translate(95,420)"/>
<path d="M0 0 C0.66 0.33 1.32 0.66 2 1 C1.67 1.66 1.34 2.32 1 3 C1.66 3.33 2.32 3.66 3 4 C0.03 6.475 0.03 6.475 -3 9 C-3 7.35 -3 5.7 -3 4 C-2.34 4 -1.68 4 -1 4 C-0.67 2.68 -0.34 1.36 0 0 Z " fill="#0A5C4D" transform="translate(320,348)"/>
<path d="M0 0 C4.08378283 0.74250597 8.01939223 1.82923301 12 3 C12 3.33 12 3.66 12 4 C10.63875 3.938125 10.63875 3.938125 9.25 3.875 C6.1217954 3.99531556 4.61385994 4.3914708 2 6 C2 4.68 2 3.36 2 2 C1.34 1.34 0.68 0.68 0 0 Z " fill="#105948" transform="translate(160,311)"/>
<path d="M0 0 C0.33 0.66 0.66 1.32 1 2 C0.525625 2.45375 0.05125 2.9075 -0.4375 3.375 C-2.09027808 4.93258204 -2.09027808 4.93258204 -3 7 C-3.99 6.67 -4.98 6.34 -6 6 C-8.14255793 6.38932856 -8.14255793 6.38932856 -10 7 C-7.2180632 3.72713318 -3.72045933 2.03572303 0 0 Z " fill="#0B4A43" transform="translate(213,210)"/>
<path d="M0 0 C0.33 0.66 0.66 1.32 1 2 C0.06553465 4.03144641 -0.93224776 6.03533587 -2 8 C-3.98 8 -5.96 8 -8 8 C-5.33333333 5.33333333 -2.66666667 2.66666667 0 0 Z " fill="#4EC766" transform="translate(418,438)"/>
<path d="M0 0 C0.33 0 0.66 0 1 0 C1.33 4.29 1.66 8.58 2 13 C1.01 13.33 0.02 13.66 -1 14 C-0.67 9.38 -0.34 4.76 0 0 Z " fill="#23655F" transform="translate(63,315)"/>
<path d="M0 0 C2 1 2 1 3 3 C2.113125 3.2475 1.22625 3.495 0.3125 3.75 C-3.10427135 5.03934768 -5.2797748 6.59980129 -8 9 C-6.4169423 4.7257442 -3.49431596 2.73468206 0 0 Z " fill="#0B443E" transform="translate(452,205)"/>
<path d="M0 0 C0.33 0 0.66 0 1 0 C1 1.65 1 3.3 1 5 C0.360625 5.103125 -0.27875 5.20625 -0.9375 5.3125 C-1.618125 5.539375 -2.29875 5.76625 -3 6 C-3.33 6.99 -3.66 7.98 -4 9 C-4.33 8.34 -4.66 7.68 -5 7 C-4.19152271 5.83054208 -3.37810888 4.66449539 -2.5625 3.5 C-2.11003906 2.8503125 -1.65757812 2.200625 -1.19140625 1.53125 C-0.79824219 1.0259375 -0.40507812 0.520625 0 0 Z " fill="#0D5B4E" transform="translate(335,384)"/>
<path d="M0 0 C0.33 0.66 0.66 1.32 1 2 C1.66 2 2.32 2 3 2 C5.125 9.625 5.125 9.625 4 13 C3.32694982 11.39850114 2.66177773 9.79368971 2 8.1875 C1.62875 7.29417969 1.2575 6.40085937 0.875 5.48046875 C0 3 0 3 0 0 Z " fill="#0A5444" transform="translate(58,354)"/>
<path d="M0 0 C0 0.66 0 1.32 0 2 C-0.99 2 -1.98 2 -3 2 C-3 2.66 -3 3.32 -3 4 C-5.31 4.33 -7.62 4.66 -10 5 C-7.31217681 1.88778367 -4.19734673 0 0 0 Z " fill="#3AD0C6" transform="translate(463,299)"/>
<path d="M0 0 C-1.1875 1.5 -1.1875 1.5 -3 3 C-5.6875 3.1875 -5.6875 3.1875 -8 3 C-7.67 2.01 -7.34 1.02 -7 0 C-2.25 -1.125 -2.25 -1.125 0 0 Z M-11 3 C-8 4 -8 4 -8 4 Z " fill="#ECF3F1" transform="translate(346,514)"/>
<path d="M0 0 C0 0.66 0 1.32 0 2 C-3.66305234 2.74926071 -6.42355152 3.2380014 -10 2 C-6.49223216 0.39644899 -3.85645121 -0.22036864 0 0 Z " fill="#0E5B4F" transform="translate(379,355)"/>
<path d="M0 0 C1.98 0 3.96 0 6 0 C6 0.99 6 1.98 6 3 C4.02 3.99 4.02 3.99 2 5 C1.34 3.35 0.68 1.7 0 0 Z " fill="#6DB386" transform="translate(108,161)"/>
<path d="M0 0 C2.31 0 4.62 0 7 0 C7 0.66 7 1.32 7 2 C8.32 2.66 9.64 3.32 11 4 C9.53984709 3.71758359 8.08190207 3.42373386 6.625 3.125 C5.81289063 2.96257812 5.00078125 2.80015625 4.1640625 2.6328125 C2 2 2 2 0 0 Z " fill="#23964F" transform="translate(346,88)"/>
<path d="M0 0 C2.2477975 2.05233685 3.0022242 3.00667261 4 6 C3.01 6.66 2.02 7.32 1 8 C0.40267181 5.23735711 0 2.83967231 0 0 Z " fill="#95CD74" transform="translate(300,346)"/>
<path d="M0 0 C1.17219543 0.78345715 2.33763668 1.57702836 3.5 2.375 C4.47453125 3.03628906 4.47453125 3.03628906 5.46875 3.7109375 C5.9740625 4.13632812 6.479375 4.56171875 7 5 C7 5.66 7 6.32 7 7 C4.03 6.505 4.03 6.505 1 6 C0.67 4.02 0.34 2.04 0 0 Z " fill="#5ABF73" transform="translate(69,339)"/>
<path d="M0 0 C0.66 0.99 1.32 1.98 2 3 C0.35 4.32 -1.3 5.64 -3 7 C-3.33 6.01 -3.66 5.02 -4 4 C-2.68 2.68 -1.36 1.36 0 0 Z " fill="#26635C" transform="translate(77,194)"/>
<path d="M0 0 C2.0625 1.75 2.0625 1.75 4 4 C3.75 6.25 3.75 6.25 3 8 C0.37613513 4.93882432 0 4.26826873 0 0 Z " fill="#104D45" transform="translate(133,201)"/>
<path d="M0 0 C0.66 0.33 1.32 0.66 2 1 C0.37660195 2.70884005 -1.29319053 4.37446717 -3 6 C-3.66 6 -4.32 6 -5 6 C-4.75 4.125 -4.75 4.125 -4 2 C-2.0625 0.6875 -2.0625 0.6875 0 0 Z " fill="#2D9855" transform="translate(148,129)"/>
</svg>
